<svg xmlns="http://www.w3.org/2000/svg" viewBox="0 0 980 980" fill="none" shape-rendering="auto"><metadata xmlns:rdf="http://www.w3.org/1999/02/22-rdf-syntax-ns#" xmlns:xsi="http://www.w3.org/2001/XMLSchema-instance" xmlns:dc="http://purl.org/dc/elements/1.1/" xmlns:dcterms="http://purl.org/dc/terms/"><rdf:RDF><rdf:Description><dc:title>Lorelei</dc:title><dc:creator>Lisa Wischofsky</dc:creator><dc:source xsi:type="dcterms:URI">https://www.figma.com/community/file/1198749693280469639</dc:source><dcterms:license xsi:type="dcterms:URI">https://creativecommons.org/publicdomain/zero/1.0/</dcterms:license><dc:rights>Remix of „Lorelei” (https://www.figma.com/community/file/1198749693280469639) by „Lisa Wischofsky”, licensed under „CC0 1.0” (https://creativecommons.org/publicdomain/zero/1.0/)</dc:rights></rdf:Description></rdf:RDF></metadata><mask id="viewboxMask"><rect width="980" height="980" rx="0" ry="0" x="0" y="0" fill="#fff" /></mask><g mask="url(#viewboxMask)"><g transform="translate(10 -60)"><path d="M269 153c13-1 27 1 40 4 17 5 34 11 50 20a91 91 0 0 1 44 43h41l47-1a284 284 0 0 1 150 43l22 16 22 24a58 58 0 0 1 8 67c-2 4-7 6-11 3s-6-8-9-13l-16-26-10-23-35-1c-4 0-8-1-11-4l-14-10c-1 4-3 9-6 12-3 4-9 0-13-1-22-4-44-6-67-6-24 0-47 3-71 6l-23 4-8-2-18-5 3 17-1 14c0 4-3 8-5 12l-19 37c-6 17-12 34-16 52 0 2-1 4-3 5l-12 2c5 9 6 20 5 30-1 12-3 25-9 36 7 9 9 20 10 32 2 19 0 38-7 55-2 5-5 10-10 12-1 1-4 1-4-1-2-3-2-7-2-11l-3-13-18-1c-8-2-16-7-21-14l-9-10a233 233 0 0 1-28-159c6-39 21-76 44-107a330 330 0 0 0-87 53c-6-6-8-14-8-22 1-19 9-36 21-51-19 10-35 22-51 35-3 2-5 5-9 5l-7-10c-3-11 1-24 7-33 9-16 25-29 39-40 4-4 10-8 13-13 1-2 0-6-2-7l-9-3c-2-1-2-3 0-5 12-13 29-17 45-22 30-7 61-9 91-3-17-7-34-13-52-16h-11l1-2c3-3 8-4 12-4Z" fill="#000000"/><path d="M495 234c28 1 56 6 84 15a201 201 0 0 1 100 65c19 25 31 55 35 86a361 361 0 0 1 2 101l-5 34-4 20c-1 2-1 2-3 2-2-4-2-8-2-12-1-15 1-29 2-44 1-24 3-48 1-72l-6-45c-7-28-20-54-40-75-18-18-40-33-63-43-22-9-44-15-67-19-18-3-36-4-54-4a277 277 0 0 0-128 29c-13 9-25 20-35 32a276 276 0 0 0-55 139c-1 24 0 47 8 70l7 15 12 1 1 3c-3 2-7 2-11 3-10 2-20 6-29 12-7 5-14 11-18 19-5 10-3 22-1 33 5 19 17 37 33 49 11 9 25 14 39 16 10 2 20 0 30-1 5 4 8 12 11 17l18 27a136 136 0 0 0 66 50c22 9 45 14 68 19l41 8 17 5v4h-12a535 535 0 0 1-67-8 255 255 0 0 1-84-33c-11-7-21-16-29-27a214 214 0 0 1-16 123c-15 27-40 48-70 57-3 1-7 2-10 1-2 0-2-1-2-3 1-3 4-5 6-6 12-8 26-14 38-23 13-11 24-23 31-38 6-15 10-32 12-49 2-13 3-26 2-40l-4-38-18-36-19 4a88 88 0 0 1-75-38 93 93 0 0 1-20-58c0-9 3-18 8-25s12-13 19-17c5-4 12-6 18-8l-9-24c-5-22-5-45-2-67a292 292 0 0 1 63-149c9-10 18-19 29-26 7-4 14-5 20-9 43-19 90-25 137-22Z" fill="#000"/><path d="M475 243a276 276 0 0 1 121 23c23 10 45 25 63 43 20 21 33 47 40 75l6 45c2 24 0 48-1 72-1 15-3 29-2 44 0 4 0 8 2 12l-1 20c-2 5-2 10-2 16-2 24-2 49-6 74-1 12-3 25-8 36-3 9-8 17-15 24-12 13-27 24-43 33-19 11-39 16-58 24-5 2-10 4-13 8 8 1 15 0 23-2-5 12-6 24-6 36 0 5-1 11 1 16 3 5 8 9 13 12l35 13c22 8 43 18 65 27 2 4 5 7 6 12 6 11 7 23 3 35-5 13-15 24-27 31-16 11-36 19-55 24a494 494 0 0 1-235-7c-20-7-40-14-58-24-14-8-29-18-40-31-6-8-11-19-12-29a122 122 0 0 0 86-107c4-24 4-49 0-73 8 11 18 20 29 27l27 14a331 331 0 0 0 124 27h12v-4l-17-5-41-8c-23-5-46-10-68-19-13-6-27-13-39-21-10-9-19-18-27-29l-18-27c-3-5-6-13-11-17-10 1-20 3-30 1-14-2-28-7-39-16a94 94 0 0 1-33-49c-2-11-4-23 1-33 4-8 11-14 18-19 9-6 19-10 29-12 4-1 8-1 11-3l-1-3-12-1-7-15c-8-23-9-46-7-70a276 276 0 0 1 54-139c10-12 22-23 35-32a277 277 0 0 1 128-30Z" fill="#ffffff"/><path d="M260 571c4 0 7 0 11 2 5 1 11 4 14 8 2 3 2 7 0 10-5 6-12 10-16 16 6 4 14 6 21 9 4 1 8 3 11 6l1 3-8-2-24-7c-4-1-8-3-9-7-1-3 1-7 3-10l15-13c-4-7-15-8-19-15ZM703 577l2 3 2 16a483 483 0 0 1-2 89c-2 11-5 23-10 33a198 198 0 0 1-106 71c-1 14-3 31-2 47l5 5c8 6 18 9 27 12a451 451 0 0 1 68 28c7 4 13 9 18 15-5 1-10-1-16-2-22-9-43-19-65-27l-35-13c-5-3-10-7-13-12-2-5-1-11-1-16 0-12 1-24 6-36-8 2-15 3-23 2 3-4 8-6 13-8 19-8 39-13 58-24 16-9 31-20 43-33 7-7 12-15 15-24 5-11 7-24 8-36 4-25 4-50 6-74 0-6 0-11 2-16Z" fill="#000"/><path d="M455 468c14 0 27 5 38 13 15 10 26 25 30 43v14c-1 1-2 2-4 1-3-3-5-8-7-12-8-14-18-28-32-36-10-6-22-8-33-6 7 12 11 26 11 40 0 9-4 16-8 24-2 2-5 1-7 1-7 0-13-2-20-4-3-2-8-4-10-8l-1-14 4-19-6 8c-3 4-10 4-13 0-3-3-3-8-1-12 6-8 13-16 22-22 11-8 24-11 37-11ZM684 488c2 1 3 3 0 4l-15 8c5 0 10-1 15 2 3 1 6 5 6 9-4 4-9 7-15 7-15 0-30 3-44 10-3 1-8 2-11-1-4-3-4-9-2-12 2-4 5-6 8-8l45-17c4-1 9-3 13-2Z" fill="#000000"/><g fill="#000000"><path d="M675 381c5 0 8 4 9 8-11 3-23 8-34 13l-16 8c-7 4-14 7-22 9-5 1-9 0-13 3l-7 8c-3 3-4 7-6 12-1-1-3-2-3-4-2-5 0-11 2-16 2-6 3-12 8-17 3-4 5-8 9-10 4-3 10-4 14 0l1 6 25-14c11-4 21-8 33-6ZM481 383c14 2 32 1 44 7 9 4 13 11 18 19l-1 4c-4 3-9 4-14 2-4-2-6-6-9-8-2-2-5-2-8-3l-25-2c-12-1-24-6-36-7l-27-5-5-2c9-3 19-4 29-5 11 0 23-2 34 0Z"/><path d="M540 387c6-2 12-2 16 2 6 3 9 9 11 15 0-4 2-9 5-12 6 3 11 9 13 15 1 5 2 10 0 15s-9 8-13 5c-4-4-4-12-5-18-1 4-2 8-5 10s-7 1-9-2l-5-12-7-15-1-3Z"/></g><path d="M607 606c0 3-2 6-4 9-4 6-11 10-18 12-5 1-9-2-13 0-4 0-8 1-12-1-2-1-2-4 0-6 3-4 8-7 12-7 4-1 7-1 10 2l1 7c5-2 7-5 11-8l13-8Z" fill="#000000"/><path d="M607 684c3 2 2 6 1 9-2 8-4 15-9 22-5 5-10 10-17 12-10 4-22 2-31-3-4-2-9-5-11-9-1-1-2-3-1-4 2-2 5-3 8-3 9 1 18 6 27 7 7 1 13-3 17-8 5-6 8-15 12-22 1-2 2-2 4-1Z" fill="#000000"/><path d="M508 220a271 271 0 0 1 97 24c14 7 29 14 42 23 8 5 16 11 22 18l22 25c-9 4-18 3-27 2-17-2-34-4-51-3l-8-1-7-5-12-8c0 4-1 7-3 11-2 2-4 3-7 3-4-1-7-3-11-3a470 470 0 0 0-155 3h-11l-18-6c1 9 4 18 3 26-1 4-1 8-3 11-7 14-15 27-21 42-7 17-13 35-17 53 0 2-1 4-3 5l-12 2c5 9 6 20 5 30-1 12-3 26-9 36 7 9 10 21 10 33 1 19 0 37-7 55-2 4-5 9-10 11-1 1-4 1-4-1-2-4-2-9-3-13-2-15-9-29-20-40-8-7-17-14-26-19-6-2-11-4-16-8l-6-8c-12-32-16-67-12-101a285 285 0 0 1 37-113c10-16 22-30 35-43 10-9 20-17 31-23l14-5 32-11 19-2h43c23 0 44-2 67 0Z" fill="#000000"/></g><g transform="translate(10 -60)"></g></g></svg>