<svg xmlns="http://www.w3.org/2000/svg" viewBox="0 0 1920 1080"><g transform="
          rotate(0 960 540) 
          translate(-0 -0)
          scale(1)
        "><rect width="1920" height="1080" fill="rgb(236, 232, 255)"></rect><g transform="translate(0, 0)"><path fill="rgb(219, 221, 255)" fill-opacity="1" d="M0,211.766L45.714,210.045C91.429,208.324,182.857,204.882,274.286,204.349C365.714,203.815,457.143,206.19,548.571,206.457C640,206.724,731.429,204.883,822.857,181.91C914.286,158.936,1005.714,114.83,1097.143,111.105C1188.571,107.38,1280,144.036,1371.429,132.802C1462.857,121.567,1554.286,62.441,1645.714,59.088C1737.143,55.735,1828.571,108.155,1874.286,134.364L1920,160.574L1920,1080L1874.286,1080C1828.571,1080,1737.143,1080,1645.714,1080C1554.286,1080,1462.857,1080,1371.429,1080C1280,1080,1188.571,1080,1097.143,1080C1005.714,1080,914.286,1080,822.857,1080C731.429,1080,640,1080,548.571,1080C457.143,1080,365.714,1080,274.286,1080C182.857,1080,91.429,1080,45.714,1080L0,1080Z"></path></g><g transform="translate(0, 216)"><path fill="rgb(202, 209, 255)" fill-opacity="1" d="M0,81.656L45.714,70.46C91.429,59.265,182.857,36.873,274.286,48.431C365.714,59.99,457.143,105.497,548.571,113.703C640,121.909,731.429,92.812,822.857,78.248C914.286,63.685,1005.714,63.654,1097.143,84.765C1188.571,105.875,1280,148.126,1371.429,170.818C1462.857,193.51,1554.286,196.643,1645.714,170.805C1737.143,144.967,1828.571,90.158,1874.286,62.753L1920,35.349L1920,864L1874.286,864C1828.571,864,1737.143,864,1645.714,864C1554.286,864,1462.857,864,1371.429,864C1280,864,1188.571,864,1097.143,864C1005.714,864,914.286,864,822.857,864C731.429,864,640,864,548.571,864C457.143,864,365.714,864,274.286,864C182.857,864,91.429,864,45.714,864L0,864Z"></path></g><g transform="translate(0, 432)"><path fill="rgb(184, 198, 255)" fill-opacity="1" d="M0,64.272L45.714,80.584C91.429,96.896,182.857,129.519,274.286,152.598C365.714,175.676,457.143,189.21,548.571,180.309C640,171.407,731.429,140.071,822.857,108.188C914.286,76.304,1005.714,43.874,1097.143,26.019C1188.571,8.164,1280,4.885,1371.429,24.647C1462.857,44.41,1554.286,87.215,1645.714,100.669C1737.143,114.124,1828.571,98.228,1874.286,90.28L1920,82.332L1920,648L1874.286,648C1828.571,648,1737.143,648,1645.714,648C1554.286,648,1462.857,648,1371.429,648C1280,648,1188.571,648,1097.143,648C1005.714,648,914.286,648,822.857,648C731.429,648,640,648,548.571,648C457.143,648,365.714,648,274.286,648C182.857,648,91.429,648,45.714,648L0,648Z"></path></g><g transform="translate(0, 648)"><path fill="rgb(167, 186, 255)" fill-opacity="1" d="M0,30.89L45.714,34.779C91.429,38.669,182.857,46.447,274.286,51.965C365.714,57.483,457.143,60.739,548.571,79.834C640,98.928,731.429,133.861,822.857,157.65C914.286,181.439,1005.714,194.085,1097.143,201.671C1188.571,209.256,1280,211.781,1371.429,197.174C1462.857,182.567,1554.286,150.829,1645.714,125.577C1737.143,100.325,1828.571,81.56,1874.286,72.177L1920,62.795L1920,432L1874.286,432C1828.571,432,1737.143,432,1645.714,432C1554.286,432,1462.857,432,1371.429,432C1280,432,1188.571,432,1097.143,432C1005.714,432,914.286,432,822.857,432C731.429,432,640,432,548.571,432C457.143,432,365.714,432,274.286,432C182.857,432,91.429,432,45.714,432L0,432Z"></path></g><g transform="translate(0, 864)"><path fill="rgb(150, 175, 255)" fill-opacity="1" d="M0,20.822L45.714,48.489C91.429,76.155,182.857,131.487,274.286,163.3C365.714,195.113,457.143,203.408,548.571,207.849C640,212.29,731.429,212.879,822.857,200.569C914.286,188.259,1005.714,163.051,1097.143,147.31C1188.571,131.569,1280,125.295,1371.429,112.475C1462.857,99.655,1554.286,80.29,1645.714,95.586C1737.143,110.882,1828.571,160.839,1874.286,185.818L1920,210.796L1920,216L1874.286,216C1828.571,216,1737.143,216,1645.714,216C1554.286,216,1462.857,216,1371.429,216C1280,216,1188.571,216,1097.143,216C1005.714,216,914.286,216,822.857,216C731.429,216,640,216,548.571,216C457.143,216,365.714,216,274.286,216C182.857,216,91.429,216,45.714,216L0,216Z"></path></g></g></svg>