<?xml version="1.0" standalone="no"?>
<!DOCTYPE svg PUBLIC "-//W3C//DTD SVG 20010904//EN"
 "http://www.w3.org/TR/2001/REC-SVG-20010904/DTD/svg10.dtd">
<svg version="1.0" xmlns="http://www.w3.org/2000/svg"
 width="1500.000000pt" height="1500.000000pt" viewBox="0 0 1500.000000 1500.000000"
 preserveAspectRatio="xMidYMid meet">
<metadata>
Created by potrace 1.14, written by Peter Selinger 2001-2017
</metadata>
<g transform="translate(0.000000,1500.000000) scale(0.100000,-0.100000)"
fill="#000000" stroke="none">
<path d="M0 7500 l0 -7500 7500 0 7500 0 0 5470 c0 3803 -3 5470 -11 5470 -5
0 -7 -4 -4 -10 10 -16 -1 -12 -15 6 -8 8 -9 14 -4 13 26 -5 30 5 29 75 0 73
-9 104 -20 74 -8 -21 -42 -12 -48 13 -8 31 4 60 29 70 32 12 30 25 -7 38 -22
8 -35 7 -50 -2 -20 -13 -25 -27 -9 -27 13 0 13 -37 0 -45 -6 -4 -9 -1 -8 7 2
7 -3 12 -10 10 -8 -1 -11 2 -7 8 3 6 11 7 17 4 7 -4 8 -2 4 4 -4 7 -14 12 -23
12 -12 0 -9 7 10 24 15 14 22 28 17 31 -6 3 -10 0 -10 -7 0 -9 -3 -9 -10 2 -8
12 -10 11 -10 -7 0 -13 -5 -23 -10 -23 -6 0 -9 12 -8 27 2 21 -2 28 -22 34
-17 5 -19 7 -7 8 10 1 27 -4 38 -9 15 -8 19 -7 19 5 0 8 -5 15 -10 15 -7 0 -7
6 0 19 13 26 13 34 -2 25 -22 -14 -49 -12 -44 2 3 7 1 16 -5 19 -5 4 -8 1 -7
-6 2 -6 -10 -15 -25 -20 -24 -6 -29 -4 -36 14 -5 12 -4 25 1 28 10 7 0 39 -13
39 -5 0 -9 8 -9 18 0 14 -2 15 -10 2 -7 -11 -5 -18 6 -27 8 -6 11 -14 6 -17
-5 -3 -15 5 -22 18 -9 19 -10 28 0 47 7 13 9 21 5 17 -5 -4 -13 -4 -19 2 -7 5
-17 5 -26 -2 -12 -8 -12 -9 2 -4 23 7 33 -11 18 -29 -17 -20 -34 -19 -26 1 5
14 4 15 -9 4 -12 -10 -16 -9 -21 4 -9 23 -24 20 -19 -4 2 -11 0 -18 -5 -15 -5
3 -7 14 -5 25 2 11 -2 20 -8 20 -7 0 -6 4 3 10 12 7 12 10 1 10 -8 0 -11 6 -7
17 4 10 4 14 0 11 -4 -4 -15 -3 -25 3 -14 7 -26 5 -46 -8 -25 -17 -27 -17 -20
-1 3 10 2 20 -3 23 -6 4 -10 -2 -10 -12 0 -10 -8 -27 -17 -38 -12 -16 -14 -16
-10 -3 3 10 2 20 -3 23 -6 4 -11 -1 -11 -9 -2 -28 -4 -34 -10 -40 -3 -4 -5 8
-5 26 1 24 -3 32 -14 30 -8 -2 -12 0 -8 3 4 4 3 17 -3 28 -8 14 -8 18 0 13 6
-4 14 0 17 8 3 9 11 16 16 16 6 0 3 -11 -5 -24 -15 -22 -15 -25 0 -38 14 -11
16 -11 11 4 -4 9 -1 19 7 22 9 3 12 -1 10 -14 -2 -11 0 -22 4 -25 5 -2 11 9
13 25 3 20 0 30 -8 30 -8 0 -11 6 -8 15 4 8 1 22 -5 29 -8 10 -9 16 -1 21 5 3
10 -1 10 -9 0 -18 15 -21 25 -7 8 13 -12 24 -49 26 -17 1 -39 5 -48 9 -9 4
-21 5 -26 2 -5 -3 -7 6 -4 21 5 25 6 25 18 8 8 -10 14 -13 14 -7 0 7 5 12 11
12 5 0 8 -4 5 -9 -9 -14 21 -21 31 -8 6 8 0 22 -17 40 -18 19 -27 23 -27 13 0
-8 4 -13 9 -10 4 3 8 1 8 -4 0 -14 -28 -23 -35 -12 -3 5 -13 6 -22 3 -11 -4
-14 -3 -9 6 12 20 -14 43 -42 36 -15 -4 -21 -2 -17 4 4 7 -1 8 -12 4 -17 -7
-17 -6 -2 17 9 14 22 25 28 25 14 0 15 5 1 35 -7 17 -9 19 -7 5 2 -11 -5 -29
-15 -39 -19 -21 -24 -15 -9 12 7 14 4 17 -17 19 -14 0 -21 -2 -16 -5 5 -4 11
-16 12 -27 3 -14 1 -17 -7 -10 -6 6 -13 26 -15 43 -4 40 -13 49 -28 34 -9 -9
-9 -12 1 -12 9 0 11 -8 7 -26 -5 -18 -3 -24 5 -18 7 4 9 3 6 -3 -7 -10 20 -28
36 -25 4 1 7 -3 7 -8 0 -6 -5 -10 -11 -10 -14 0 11 -24 34 -33 10 -4 17 -2 17
6 0 6 7 2 15 -10 9 -12 12 -29 8 -40 -6 -16 -5 -17 13 -3 12 9 15 9 7 1 -8 -9
-9 -21 -3 -37 5 -13 6 -23 2 -21 -4 1 -8 -2 -10 -7 -1 -6 4 -11 13 -12 8 -1
16 2 16 7 1 5 2 14 3 21 0 6 7 13 15 16 9 3 11 0 6 -8 -6 -10 -1 -11 21 -6 16
4 26 4 22 0 -4 -4 -3 -13 3 -21 12 -13 -2 -19 -15 -6 -3 4 -15 8 -26 10 -22 3
-38 -33 -22 -49 7 -7 6 -21 -4 -43 -11 -27 -11 -35 0 -44 7 -6 17 -7 22 -3 7
6 -4 -11 -24 -38 -2 -3 -2 3 0 12 1 9 -1 17 -7 17 -5 1 -10 -3 -10 -8 0 -5 -3
-12 -7 -16 -3 -4 -5 1 -3 12 2 10 4 18 5 18 2 0 10 36 12 58 1 9 7 17 12 17 6
0 5 5 -2 12 -15 15 -20 10 -26 -27 -2 -17 -5 -31 -6 -32 -2 -2 -4 -7 -5 -13
-1 -5 -4 -13 -5 -17 -1 -5 -1 -12 0 -18 1 -5 -2 -7 -6 -3 -4 4 -14 2 -23 -5
-14 -10 -14 -10 -3 5 10 13 10 17 0 22 -8 3 -6 5 4 3 17 -2 20 7 11 30 -3 7
-10 10 -16 6 -6 -4 -7 -1 -1 8 16 26 10 64 -15 91 -19 21 -28 25 -38 17 -7 -6
-13 -16 -13 -21 0 -6 5 -6 14 1 18 15 39 -10 42 -51 2 -27 1 -28 -11 -11 -8
11 -10 22 -4 29 5 6 4 15 -3 22 -9 9 -16 8 -29 -4 -16 -15 -17 -14 -14 12 2
21 -6 35 -33 60 -20 18 -37 40 -38 49 -1 9 0 14 4 11 3 -3 17 4 31 16 l26 23
-20 -23 -19 -23 27 5 c15 3 25 1 22 -3 -2 -5 2 -14 10 -21 14 -11 14 -15 1
-29 -10 -11 -12 -21 -6 -31 9 -15 11 -13 14 12 0 6 12 13 26 15 17 2 21 0 11
-6 -8 -5 -9 -11 -3 -15 15 -9 24 10 17 34 -5 15 -2 20 12 20 14 0 15 -2 4 -9
-8 -5 -9 -11 -3 -15 11 -7 24 18 15 28 -13 12 -43 5 -43 -10 0 -8 -4 -13 -10
-9 -5 3 -6 13 -3 22 5 12 2 15 -10 10 -11 -4 -17 2 -22 24 -4 16 -11 29 -16
29 -5 0 -8 3 -7 8 3 16 -23 63 -32 57 -5 -3 -10 -11 -10 -16 0 -6 4 -8 8 -5 5
3 8 -9 8 -26 l0 -31 -18 23 c-13 16 -15 27 -8 40 7 13 5 21 -5 30 -21 18 -31
5 -14 -17 13 -16 12 -17 -3 -4 -21 16 -22 12 -5 -22 8 -15 11 -41 8 -64 l-6
-38 -3 33 c-2 18 -8 30 -13 26 -5 -3 -7 -9 -5 -13 7 -10 -35 -8 -52 3 -8 4
-10 16 -6 28 5 16 3 19 -7 12 -12 -6 -12 -5 0 9 16 20 2 23 -19 5 -13 -11 -13
-11 -2 1 13 16 17 60 5 47 -5 -4 -8 -11 -8 -14 -1 -4 -6 -17 -13 -28 -6 -12
-9 -24 -6 -27 3 -3 1 -14 -6 -24 -10 -16 -10 -15 -4 6 5 18 3 22 -7 15 -12 -6
-12 -5 -1 8 16 20 23 56 13 63 -5 2 -21 -5 -35 -16 -24 -19 -25 -23 -13 -38
24 -28 28 -39 15 -47 -7 -4 -10 -4 -6 1 11 12 -11 45 -26 39 -8 -3 -17 -1 -21
5 -4 7 0 8 11 4 11 -4 15 -3 10 5 -3 6 -2 13 4 17 6 4 7 11 4 17 -4 6 -3 9 2
5 11 -6 38 13 41 31 2 6 -2 12 -8 12 -5 0 -7 5 -4 10 3 6 -2 10 -12 10 -14 0
-15 2 -4 9 14 9 43 -8 35 -20 -2 -4 3 -9 11 -12 10 -5 13 1 10 23 -4 33 11 49
28 30 8 -8 8 -11 1 -7 -10 6 -12 -15 -6 -59 2 -11 38 -28 55 -25 5 1 5 -4 1
-10 -4 -7 -2 -10 5 -8 7 3 13 9 13 14 1 6 8 15 17 22 14 11 14 12 -4 13 -17 0
-17 2 -5 10 11 7 21 3 38 -15 22 -24 32 -30 32 -21 0 3 -8 12 -17 22 -10 9
-17 26 -18 38 0 11 -4 21 -10 21 -18 1 -53 28 -51 39 2 6 1 8 -1 4 -2 -4 -11
-4 -19 -1 -7 3 -12 9 -9 13 12 20 -15 18 -37 -3 -33 -29 -48 -31 -48 -8 0 11
-4 23 -10 26 -5 3 -10 14 -10 23 0 13 2 13 15 -4 10 -14 14 -15 15 -5 0 11 4
10 16 -5 14 -18 15 -18 4 3 -6 13 -16 22 -22 20 -7 -1 -13 4 -14 11 -1 6 -3
15 -4 20 -1 4 -2 10 -1 15 0 4 -4 7 -9 7 -14 0 -13 -17 1 -26 7 -4 -1 -12 -21
-20 -42 -18 -43 -18 -29 7 9 18 13 19 21 8 6 -10 7 -4 3 17 -5 27 -3 31 16 30
12 -1 24 6 26 14 4 12 3 13 -5 1 -7 -9 -16 -11 -28 -6 -27 11 -54 13 -48 3 3
-4 0 -8 -5 -8 -6 0 -11 9 -11 21 0 11 4 17 10 14 6 -4 7 1 3 11 -4 11 -8 13
-11 6 -2 -7 -9 -9 -14 -6 -7 4 -8 2 -4 -4 4 -7 2 -12 -3 -12 -6 0 -11 -5 -11
-11 0 -5 6 -7 13 -3 6 4 4 -2 -6 -13 -11 -13 -14 -23 -8 -27 5 -4 12 -2 15 2
9 15 49 8 54 -8 5 -13 3 -13 -13 0 -10 8 -16 10 -12 3 5 -8 -2 -11 -23 -11
-16 1 -30 5 -30 10 0 5 -4 7 -9 3 -11 -6 -42 35 -35 47 3 4 11 8 17 8 7 0 6
-4 -3 -11 -10 -7 -11 -9 -2 -7 8 2 13 7 12 12 -1 5 4 13 12 17 10 7 9 9 -5 9
-10 0 -15 5 -12 10 3 6 1 10 -5 10 -7 0 -10 -7 -7 -14 4 -9 -2 -17 -13 -21
-19 -6 -19 -8 -3 -38 9 -18 16 -39 14 -46 -2 -12 0 -12 11 -4 11 9 14 6 14
-18 2 -30 1 -30 -13 -9 -14 19 -17 20 -32 6 -16 -15 -18 -15 -18 1 0 10 4 24
10 31 12 15 -5 16 -20 1 -6 -6 -9 -19 -6 -28 4 -13 3 -13 -5 -2 -7 10 -6 20 1
33 9 14 9 23 -1 38 -7 11 -9 19 -5 18 5 -2 8 1 8 7 0 5 -7 9 -15 7 -13 -3 -13
-2 0 7 12 9 11 11 -7 11 -21 0 -26 21 -8 37 4 4 5 3 1 -4 -11 -19 29 -36 44
-18 7 8 16 13 19 10 4 -2 8 1 9 8 0 7 2 21 4 31 2 10 -3 21 -10 23 -9 4 -11
-2 -6 -21 5 -21 3 -26 -12 -25 -11 0 -14 3 -7 6 10 4 10 7 0 18 -11 10 -38 13
-68 6 -11 -2 -1 -73 12 -82 11 -7 9 -9 -6 -9 -12 0 -27 -6 -35 -12 -12 -11
-12 -10 -1 5 12 16 8 22 -12 18 -5 -1 -6 3 -2 9 5 8 11 8 20 0 11 -9 14 -7 12
9 -1 12 -6 20 -12 17 -5 -2 -18 3 -27 12 -11 9 -18 10 -18 4 0 -6 5 -14 10
-17 8 -5 8 -11 0 -20 -7 -9 -8 -15 -1 -20 7 -4 7 -12 -1 -25 -11 -17 -14 -17
-21 -4 -5 9 -6 18 -3 21 3 4 6 1 6 -6 0 -7 5 -9 10 -6 8 5 8 11 0 20 -8 10 -8
15 0 20 7 4 8 11 1 18 -5 7 -7 26 -3 42 6 30 6 30 12 5 4 -16 13 -25 24 -25
22 0 30 31 11 39 -10 3 -12 0 -8 -12 4 -10 2 -14 -3 -9 -12 12 -12 57 0 50 5
-4 7 1 3 11 -4 10 -7 20 -7 22 0 3 -6 2 -12 -3 -7 -4 -16 -8 -20 -9 -5 -1 -11
-2 -15 -3 -5 -1 -1 -6 7 -12 13 -9 12 -10 -2 -5 -10 3 -18 0 -19 -7 -1 -7 -2
-19 -3 -27 -1 -8 3 -21 8 -27 4 -7 5 -13 1 -13 -4 0 -2 -6 4 -14 8 -10 9 -16
1 -21 -11 -7 -12 -5 -14 27 0 12 -6 23 -13 25 -8 3 -10 -5 -7 -24 3 -15 2 -25
-1 -21 -4 3 -8 13 -9 22 -1 8 -10 24 -19 34 -10 11 -17 23 -15 28 4 17 -13 54
-23 48 -5 -3 -6 -11 -2 -17 13 -22 10 -57 -7 -72 -14 -13 -17 -13 -17 -1 0 8
5 14 10 13 18 -4 15 52 -4 69 -16 14 -18 14 -28 -4 -6 -11 -7 -23 -3 -27 4 -5
1 -5 -6 -1 -8 5 -9 13 -3 24 4 9 7 23 5 30 -1 7 0 8 3 2 6 -13 23 -3 19 13 -1
7 -1 9 1 5 3 -5 9 -8 14 -8 6 0 8 4 5 8 -3 5 2 9 11 9 13 0 12 -4 -5 -17 -12
-10 -18 -20 -15 -24 8 -8 43 24 43 40 0 7 -6 15 -13 17 -7 3 -5 6 6 6 18 1 25
-33 8 -43 -5 -4 -4 -16 2 -30 7 -13 15 -22 19 -19 5 2 5 10 2 16 -4 7 -3 8 1
4 13 -11 15 -37 3 -34 -6 1 -13 -4 -15 -11 -7 -19 29 -2 47 22 8 12 14 24 12
28 -1 5 4 7 11 5 7 -1 11 7 9 20 -2 17 1 21 12 17 9 -3 14 -9 11 -13 -2 -4 2
-8 10 -8 22 0 18 25 -5 32 -11 4 -18 11 -15 16 4 5 1 9 -4 9 -6 0 -11 -4 -11
-10 0 -5 -4 -10 -9 -10 -5 0 -7 9 -4 20 6 21 -3 25 -26 11 -8 -5 -10 -14 -6
-21 6 -9 4 -11 -5 -5 -9 6 -12 4 -8 -7 4 -8 3 -20 -1 -27 -5 -7 -8 6 -8 28 0
22 4 38 8 35 4 -2 10 0 13 5 3 5 -3 11 -14 14 -15 4 -20 0 -20 -14 0 -12 -7
-19 -20 -19 -11 0 -20 -5 -20 -11 0 -5 -10 -9 -22 -7 -15 2 -22 -2 -20 -10 1
-8 -2 -11 -8 -7 -10 6 -13 -3 -13 -37 0 -10 -3 -15 -8 -13 -7 5 -6 25 3 50 1
6 -2 11 -7 13 -6 1 -10 -2 -10 -7 0 -5 -2 -12 -6 -15 -3 -3 -5 5 -5 19 0 13 4
21 8 19 4 -3 8 -1 8 5 0 25 -33 17 -35 -9 -1 -12 -24 -44 -25 -33 0 6 5 15 10
18 16 10 -7 34 -28 30 -11 -1 -16 -9 -14 -21 2 -11 1 -16 -2 -13 -4 4 -8 15
-10 25 -2 11 -5 24 -7 29 -2 6 2 20 9 31 6 12 8 25 4 30 -4 5 1 2 11 -5 17
-13 24 -27 9 -17 -11 7 -32 -29 -24 -40 9 -13 33 -12 30 1 -2 6 -7 9 -11 7 -5
-1 -6 2 -2 8 3 6 10 8 15 5 19 -12 16 22 -4 45 l-21 25 23 -19 c26 -23 29 -11
5 17 -10 11 -13 18 -8 15 12 -7 37 40 25 47 -5 3 -16 -5 -24 -17 -9 -12 -16
-17 -16 -10 0 6 -6 12 -14 12 -9 0 -12 7 -9 20 3 11 9 17 14 14 5 -3 7 -9 4
-14 -3 -5 -1 -11 4 -14 20 -13 19 24 -2 39 -20 14 -22 14 -28 -2 -7 -17 -7
-17 -14 0 -8 18 -1 32 16 32 13 0 13 19 0 23 -6 2 -11 -1 -11 -8 0 -6 -4 -9
-9 -5 -5 3 -13 0 -17 -6 -5 -8 -3 -9 6 -4 9 5 11 4 6 -4 -13 -21 -25 -1 -16
29 9 33 1 43 -27 34 -17 -6 -17 -6 1 8 13 10 15 17 8 22 -7 4 -12 2 -12 -3 0
-6 -7 -11 -16 -11 -10 0 -14 -5 -10 -16 3 -8 2 -13 -3 -10 -5 3 -11 -3 -14
-14 -3 -11 -1 -20 4 -20 5 0 9 4 9 8 0 5 7 9 15 9 9 0 14 -5 12 -11 -2 -6 -16
-11 -30 -11 -18 1 -27 -4 -27 -15 0 -19 53 -73 62 -64 4 3 -7 18 -24 33 l-31
27 34 0 c30 -1 34 -4 34 -29 1 -16 -3 -31 -7 -33 -5 -3 -5 -11 -1 -17 4 -7 8
-15 8 -19 0 -16 20 -2 22 15 2 12 -1 16 -9 11 -7 -4 -9 -3 -5 1 14 16 36 14
30 -3 -4 -10 -2 -13 6 -8 6 4 18 2 26 -4 14 -12 12 -23 -17 -87 -6 -11 -7 -26
-4 -32 4 -6 2 -11 -3 -11 -14 0 -14 37 -1 45 17 10 12 45 -5 39 -8 -4 -15 -2
-15 4 0 8 -14 9 -38 3 -1 -1 2 -10 7 -20 12 -22 -11 -52 -24 -31 -4 6 -1 9 7
8 7 -2 11 4 10 12 -10 41 -10 50 -1 56 6 4 6 11 -2 20 -6 7 -16 11 -22 7 -5
-3 -7 -1 -4 4 8 13 -17 36 -27 25 -4 -4 -6 -2 -4 3 2 6 -1 10 -7 10 -5 0 -9
-3 -8 -7 2 -4 -4 -5 -13 -1 -11 4 -12 8 -4 13 7 4 8 10 4 12 -5 3 -3 3 4 2 6
-2 12 5 12 16 0 22 -35 46 -45 30 -6 -10 -5 -11 14 -14 5 0 12 -4 16 -8 4 -3
0 -5 -9 -4 -21 3 -29 13 -32 39 -2 12 0 16 2 9 8 -17 24 -5 18 13 -4 8 -10 12
-15 9 -5 -3 -6 3 -3 13 5 17 5 17 -9 0 -9 -11 -14 -28 -12 -38 2 -11 0 -17 -6
-14 -5 4 -7 10 -4 15 3 4 -2 13 -10 20 -8 7 -13 16 -10 20 3 5 1 11 -5 15 -6
4 -8 11 -5 16 4 5 2 9 -3 9 -16 0 -22 -13 -11 -27 6 -7 8 -13 4 -13 -5 0 0 -9
10 -20 10 -11 15 -20 11 -20 -4 0 -1 -10 5 -22 9 -18 9 -20 0 -12 -7 6 -14 20
-16 30 -2 11 -4 21 -4 24 -1 3 -5 -2 -11 -10 -6 -9 -5 -20 3 -30 9 -12 9 -13
-3 -2 -8 6 -18 12 -23 12 -4 0 -5 -6 -1 -12 5 -9 3 -9 -9 1 -9 7 -15 17 -12
21 3 5 1 11 -5 15 -5 3 -10 11 -10 17 0 5 9 0 19 -13 11 -13 22 -21 26 -17 12
12 13 43 1 58 -11 13 -14 34 -6 43 8 10 6 37 -3 34 -7 -2 -12 -8 -12 -13 0 -5
-3 -13 -6 -19 -4 -5 -2 -21 4 -35 13 -32 17 -54 9 -45 -4 4 -7 12 -7 18 -1 7
-6 11 -13 10 -6 -2 -9 4 -6 12 3 8 -6 29 -20 46 -23 27 -31 29 -27 6 0 -4 -5
-6 -11 -5 -7 2 -12 -3 -10 -10 1 -8 -2 -11 -8 -7 -8 5 -8 11 -1 19 15 18 1 28
-18 14 -9 -7 -6 -1 7 13 12 14 19 29 15 32 -9 10 -25 9 -19 -2 3 -4 -4 -17
-17 -27 -12 -10 -19 -15 -15 -10 4 5 3 15 -3 22 -7 8 -7 14 1 19 5 3 10 11 10
17 0 7 -4 7 -14 -1 -10 -8 -16 -8 -25 3 -9 10 -9 16 -1 21 8 5 4 15 -12 33
-13 14 -18 22 -11 19 6 -4 13 -4 16 0 2 5 2 3 1 -4 -2 -6 4 -17 12 -24 13 -10
14 -8 10 15 -3 15 -1 24 5 21 5 -4 7 -10 5 -14 -3 -4 -1 -13 4 -20 8 -14 30
-7 30 10 0 6 -5 7 -12 3 -6 -4 -8 -3 -4 4 3 6 -5 19 -18 30 l-25 19 24 13 c13
7 22 17 19 21 -3 5 3 6 12 2 12 -4 15 -2 12 8 -3 8 -12 12 -19 10 -8 -2 -21
-4 -29 -5 -22 -3 -40 -15 -40 -29 0 -7 4 -6 10 3 5 8 12 11 17 7 17 -17 -22
-26 -40 -9 -18 16 -18 17 8 25 21 7 24 12 14 23 -15 18 -24 18 -44 -2 -15 -15
-15 -18 1 -35 16 -18 16 -19 -5 -19 -12 0 -20 -4 -17 -9 3 -5 -2 -15 -12 -22
-15 -12 -16 -12 -6 1 13 19 11 46 -4 43 -6 -2 -9 4 -5 12 5 13 7 13 19 -2 12
-17 13 -17 11 4 0 12 -4 21 -7 21 -25 -2 -40 5 -40 18 0 8 -4 13 -9 10 -14 -9
-5 -41 10 -38 9 2 9 -1 3 -10 -9 -12 -10 -19 -5 -45 1 -5 6 -1 12 7 9 12 10
11 4 -5 -4 -11 -8 -25 -9 -32 -1 -7 -5 -15 -9 -19 -3 -4 -4 6 -1 21 3 19 1 24
-7 19 -7 -4 -9 -3 -5 4 3 6 2 14 -4 17 -8 5 -8 11 0 20 8 9 8 15 0 20 -6 3 -8
11 -5 16 4 5 2 9 -3 9 -15 0 -22 -13 -13 -24 6 -7 4 -21 -4 -36 -8 -14 -14
-20 -14 -15 -1 6 3 17 8 25 6 8 7 19 3 25 -11 17 -11 35 1 28 6 -4 8 0 4 9 -3
9 1 25 8 36 16 22 12 61 -7 74 -7 4 -9 8 -4 8 5 0 3 6 -3 14 -9 11 -6 12 14 8
25 -4 30 4 25 38 -2 11 3 10 19 -4 18 -16 24 -17 34 -6 10 10 9 12 -6 7 -13
-5 -20 0 -26 16 -8 21 -9 21 -30 -13 -18 -30 -27 -28 -22 3 1 5 -3 6 -9 2 -6
-3 -8 -10 -5 -15 6 -9 -25 -23 -33 -15 -3 3 0 5 7 5 7 0 9 5 6 10 -4 6 -11 8
-16 5 -5 -3 -6 1 -3 10 4 9 13 14 21 11 9 -4 11 -2 7 6 -5 8 -2 9 9 5 18 -7
24 8 7 18 -5 3 -6 13 -3 22 6 15 5 16 -9 3 -9 -8 -12 -17 -7 -18 5 -2 6 -8 3
-13 -3 -6 -12 -5 -22 3 -13 11 -14 11 -10 -2 2 -8 -2 -21 -9 -28 -11 -12 -11
-17 -1 -31 11 -14 11 -14 -3 -4 -24 19 -30 4 -8 -18 11 -11 17 -24 14 -29 -10
-17 13 -20 26 -3 10 11 10 14 2 9 -9 -5 -11 -2 -7 8 8 22 11 20 28 -13 15 -28
15 -28 -12 -24 -19 3 -23 2 -13 -5 8 -6 10 -15 5 -23 -6 -12 -5 -12 8 -1 13
10 18 10 24 1 5 -8 3 -9 -6 -4 -9 6 -12 4 -8 -6 3 -8 0 -26 -7 -39 -9 -17 -10
-31 -4 -45 10 -19 10 -19 -5 -1 -13 17 -13 22 0 47 13 26 13 29 -2 29 -10 0
-14 6 -11 14 8 20 -25 47 -43 36 -15 -9 -13 -11 13 -14 6 0 12 -9 12 -19 0
-10 7 -22 15 -27 11 -7 11 -10 2 -10 -7 0 -11 -4 -8 -9 3 -5 -2 -15 -12 -22
-15 -12 -16 -12 -6 1 13 20 12 45 -3 45 -6 0 -15 3 -19 7 -10 11 -35 -12 -27
-25 4 -6 1 -7 -6 -3 -7 5 -10 11 -7 14 4 3 -6 19 -21 34 -22 23 -28 39 -29 76
-1 26 3 53 9 60 6 8 6 12 -1 12 -6 0 -14 -5 -17 -10 -5 -8 -12 -7 -23 2 -13
11 -15 11 -10 -3 3 -8 -3 -26 -14 -40 l-19 -24 12 25 c14 27 18 100 7 100 -5
0 -8 5 -8 11 0 5 4 8 9 5 5 -4 11 -3 14 1 2 5 2 2 1 -4 -2 -7 3 -13 10 -13 9
0 12 7 9 20 -3 11 -10 20 -17 20 -6 0 -4 5 4 10 13 8 13 10 -2 10 -11 0 -15 6
-11 20 4 15 0 20 -16 20 -16 0 -21 -6 -21 -27 0 -22 2 -25 10 -13 7 10 10 11
10 2 0 -7 -7 -15 -15 -18 -8 -4 -12 -11 -8 -18 4 -6 8 -14 9 -18 1 -5 2 -9 4
-10 6 -9 7 -37 0 -35 -4 1 -8 -2 -8 -8 0 -5 4 -9 8 -8 10 3 7 -24 -3 -32 -4
-3 -5 -2 -2 2 3 3 -3 15 -12 26 -10 10 -17 21 -15 23 1 2 -1 4 -5 3 -5 -1 -7
-5 -5 -11 1 -5 -2 -6 -8 -3 -8 5 -6 13 6 26 9 10 13 19 7 19 -13 0 -44 -35
-38 -43 3 -4 2 -5 -2 -2 -10 8 -13 35 -3 32 4 -1 7 3 6 8 0 6 -4 9 -8 7 -13
-4 -9 5 8 18 12 11 15 11 12 0 -3 -14 40 -22 48 -8 3 4 -4 8 -15 8 -12 0 -21
5 -21 10 0 6 -6 10 -13 10 -15 0 -46 -30 -45 -43 0 -5 -3 -11 -5 -14 -5 -4 -2
23 3 37 1 3 2 9 1 13 -1 5 3 6 8 3 5 -4 12 -2 16 4 3 5 1 10 -5 10 -6 0 -9 4
-5 9 3 5 1 12 -5 16 -5 3 -10 -1 -10 -9 0 -8 -4 -17 -9 -20 -14 -9 -1 32 15
45 8 6 15 9 15 5 1 -3 3 -10 4 -16 1 -5 3 -14 4 -20 2 -17 31 -11 31 7 0 14 3
14 12 5 10 -10 10 -15 -1 -21 -8 -6 -9 -11 -3 -15 16 -10 25 12 17 42 l-7 27
-19 -24 c-14 -17 -19 -19 -19 -8 0 9 5 19 11 23 6 3 8 15 6 26 -5 18 -4 19 12
4 10 -9 21 -16 24 -16 11 0 -28 36 -47 43 -16 6 -15 9 4 29 20 21 37 65 29 73
-2 2 -13 -3 -23 -11 -17 -12 -17 -14 -3 -14 10 0 14 -5 11 -15 -5 -12 -8 -12
-20 0 -8 7 -14 18 -14 23 0 10 -54 7 -71 -3 -5 -4 -9 -13 -9 -21 0 -8 -4 -14
-10 -14 -6 0 -5 9 1 24 11 23 49 42 77 37 17 -3 15 16 -3 23 -8 3 -15 1 -15
-4 0 -5 -23 0 -50 12 -28 11 -50 25 -50 30 0 5 5 6 12 2 7 -5 8 -3 4 5 -5 8
-1 14 12 18 25 6 34 25 21 44 -8 11 -9 9 -7 -6 2 -15 -2 -19 -16 -17 -10 2
-15 -1 -12 -7 4 -5 0 -13 -8 -18 -7 -4 -16 -17 -19 -28 -3 -13 -5 -9 -6 13 0
17 -6 32 -11 32 -12 0 7 41 24 52 8 6 7 8 -1 8 -6 0 -18 -9 -26 -21 -11 -14
-16 -17 -19 -7 -4 11 -8 10 -22 -1 -9 -8 -19 -11 -23 -7 -3 3 -2 6 4 6 16 0
24 28 11 36 -6 4 -8 3 -5 -3 4 -6 -6 -15 -22 -21 -25 -9 -28 -14 -26 -47 2
-20 0 -34 -3 -30 -9 9 -14 36 -13 75 l0 35 -19 -25 c-16 -21 -21 -23 -32 -12
-11 11 -10 12 3 7 10 -4 16 0 16 9 0 8 -4 13 -8 10 -4 -2 -10 2 -12 8 -4 10
-6 10 -6 1 -1 -15 -37 -18 -45 -4 -3 4 4 8 16 7 13 -1 22 6 24 17 3 19 -22 24
-28 5 -3 -7 -7 -3 -10 8 -4 17 -1 20 21 16 20 -2 29 2 36 20 6 13 16 22 22 21
7 -2 10 6 8 19 -6 27 -8 29 -25 18 -12 -8 -11 -10 5 -10 17 0 17 -2 5 -10 -10
-7 -18 -5 -25 4 -9 11 -13 11 -25 -2 -13 -14 -12 -15 2 -10 25 10 31 -20 6
-33 -17 -9 -20 -9 -15 4 4 11 0 13 -14 10 -10 -3 -19 0 -19 6 0 6 -4 11 -9 11
-6 0 -8 -9 -6 -20 2 -11 0 -18 -4 -15 -5 2 -7 18 -6 35 1 16 -2 30 -7 30 -6 0
-8 7 -4 15 3 8 2 14 -2 14 -25 -4 -31 4 -28 36 2 19 0 38 -5 41 -5 3 -9 10 -9
15 0 6 15 1 33 -11 28 -19 29 -19 9 -2 -12 11 -19 22 -15 25 5 2 2 2 -4 1 -17
-4 -17 8 0 25 10 10 9 11 -5 6 -10 -4 -18 -13 -18 -21 0 -8 -5 -14 -11 -14 -8
0 -8 -4 -1 -13 18 -21 8 -76 -16 -93 -18 -13 -21 -13 -16 0 3 7 1 17 -5 21 -6
3 -11 -1 -11 -10 0 -9 -9 -28 -20 -42 -19 -24 -19 -49 1 -37 5 3 7 9 4 14 -3
4 2 13 10 20 11 9 19 8 37 -4 15 -11 17 -16 8 -16 -12 0 -13 -2 -1 -9 9 -6 10
-10 1 -13 -7 -2 2 -21 24 -48 19 -24 34 -47 33 -51 -2 -6 4 -9 19 -9 4 0 -1
11 -10 25 -15 23 -13 30 8 26 5 -1 6 5 3 12 -4 11 0 13 15 9 20 -5 20 -5 -1
-21 -20 -15 -20 -18 -6 -36 16 -19 16 -19 10 5 -6 25 -6 25 7 3 8 -13 13 -40
12 -61 0 -28 5 -43 17 -50 22 -14 34 1 14 18 -8 7 -13 16 -10 20 3 5 1 11 -4
14 -11 7 -2 46 11 46 5 0 4 -8 -2 -19 -6 -12 -6 -22 -1 -26 5 -3 12 3 14 12 4
14 5 13 6 -4 0 -13 -4 -23 -10 -23 -5 0 -7 -5 -3 -12 5 -8 11 -6 20 7 7 10 11
21 9 25 -2 4 2 7 10 7 10 0 8 -8 -8 -31 -12 -17 -20 -31 -17 -31 3 0 -5 -13
-16 -28 -18 -22 -23 -24 -28 -11 -3 8 -2 12 3 9 5 -3 12 -1 16 4 3 5 -2 14
-12 19 -9 6 -18 24 -19 42 -3 40 -20 61 -30 36 -6 -16 -7 -16 -19 0 -13 19
-40 10 -28 -9 4 -7 0 -6 -10 2 -18 14 -22 22 -9 19 15 -3 42 14 36 24 -3 5
-12 4 -22 -4 -10 -8 -13 -9 -9 -1 4 6 2 15 -4 18 -5 4 -8 13 -5 21 3 7 1 16
-4 19 -5 3 -10 0 -13 -7 -2 -7 -3 -3 -1 9 4 22 -9 25 -36 8 -13 -8 -13 -7 -1
8 7 9 17 15 21 12 5 -3 11 -1 15 5 3 5 0 10 -7 10 -9 0 -9 3 2 10 14 9 13 10
-17 10 -5 0 -8 -3 -8 -7 0 -5 -4 -14 -9 -21 -6 -10 -11 -10 -22 -1 -9 7 -14 8
-14 1 0 -6 5 -14 11 -17 7 -5 5 -12 -5 -23 -8 -10 -15 -21 -16 -27 -3 -19 -6
-14 -6 10 0 13 2 23 5 23 18 -2 22 4 12 16 -10 12 -9 20 4 39 15 24 15 26 -2
36 -15 8 -16 13 -6 29 10 16 8 23 -11 39 -12 11 -30 19 -39 17 -9 -1 -16 1
-16 4 3 19 -2 33 -9 28 -5 -3 -8 -23 -7 -45 1 -22 -2 -38 -7 -35 -4 3 -6 9 -3
14 3 5 1 11 -5 15 -6 4 -7 12 -3 18 4 7 8 21 8 31 0 11 8 20 18 22 9 1 15 -1
13 -5 -3 -4 -1 -13 5 -21 7 -12 9 -11 9 5 1 18 2 18 11 -3 8 -22 29 -22 29 -1
0 6 -4 8 -8 5 -4 -2 -8 11 -9 31 0 19 -7 39 -14 44 -8 5 -9 9 -4 9 6 0 3 5 -5
10 -13 8 -12 10 3 10 9 0 17 5 17 11 0 5 11 -2 24 -16 25 -26 26 -58 2 -49 -7
3 -13 -2 -13 -10 0 -8 6 -12 14 -9 7 3 13 0 13 -6 0 -6 -4 -11 -8 -11 -4 0 -8
-13 -7 -30 0 -25 5 -33 18 -29 23 7 37 5 37 -7 0 -8 5 -14 11 -14 5 0 7 5 4
10 -4 6 -1 17 5 25 6 8 9 19 5 26 -4 6 -1 15 6 20 11 6 8 9 -8 9 -12 0 -25 -5
-29 -12 -4 -7 -3 -8 4 -4 8 5 12 -2 12 -21 l0 -27 -16 22 c-9 13 -20 19 -27
15 -9 -5 -9 -3 0 8 10 12 10 18 1 27 -9 9 -9 12 0 12 7 0 12 -5 12 -11 0 -16
23 -5 26 13 1 11 -4 14 -20 12 -11 -2 -15 -1 -8 2 9 4 6 13 -13 29 -23 23 -35
42 -17 31 4 -2 8 4 9 14 1 11 -2 22 -8 25 -5 4 -9 -3 -9 -15 0 -12 -4 -19 -9
-15 -5 3 -12 1 -16 -4 -3 -6 -12 -8 -20 -5 -10 4 -13 0 -10 -14 2 -15 -2 -19
-20 -19 -23 0 -23 0 -8 24 9 13 13 27 9 31 -9 9 -26 -19 -19 -32 3 -5 1 -6 -5
-2 -6 4 -9 13 -6 20 3 8 1 17 -4 20 -6 3 -13 -1 -16 -10 -3 -8 -2 -13 2 -10 5
3 8 -10 7 -29 -1 -34 16 -48 30 -25 4 6 12 7 18 3 7 -4 17 -8 22 -8 6 0 11
-11 13 -25 l3 -25 -15 22 c-9 12 -24 20 -33 18 -10 -2 -28 -4 -41 -4 -13 -1
-20 -5 -17 -11 4 -6 3 -10 -2 -9 -15 4 -43 -13 -37 -23 3 -5 13 -4 22 4 12 9
11 6 -2 -10 -20 -23 -28 -28 -24 -13 2 5 -1 9 -7 9 -5 0 -9 -5 -7 -12 2 -6 0
-7 -5 -3 -4 5 -8 12 -8 15 0 4 -4 14 -9 22 -5 8 -6 12 -1 8 4 -4 14 -3 22 4
11 9 11 14 -4 32 -12 13 -13 17 -3 10 18 -12 30 -12 49 0 10 6 12 5 7 -2 -4
-7 -3 -12 3 -12 5 0 9 23 8 50 -1 28 -3 50 -4 50 -1 0 -7 -9 -13 -21 -9 -15
-8 -24 1 -35 9 -11 8 -14 -7 -14 -19 0 -58 20 -40 20 5 0 3 6 -3 14 -9 11 -6
12 14 8 18 -3 25 0 25 12 0 9 6 17 13 17 27 3 33 5 55 17 12 7 20 17 17 23 -8
12 -45 12 -45 -1 0 -17 -29 -11 -50 10 -11 11 -20 22 -20 25 0 11 26 -1 43
-19 9 -10 17 -14 17 -9 0 6 -7 16 -15 23 -8 7 -12 17 -8 24 4 6 1 6 -9 -2 -12
-10 -18 -9 -28 3 -12 14 -7 20 15 15 5 -1 7 2 3 5 -4 4 -2 17 4 29 10 19 10
20 -5 7 -16 -12 -21 -9 -18 12 0 4 -4 7 -10 7 -5 0 -7 5 -4 10 3 6 1 10 -4 10
-15 0 -14 -13 4 -36 20 -26 19 -33 -4 -27 -10 3 -22 0 -25 -6 -10 -16 -35 -1
-29 17 4 13 2 13 -9 -2 -10 -13 -17 -15 -22 -8 -8 14 1 32 15 32 6 0 17 7 25
15 22 21 7 19 -26 -5 -31 -22 -41 -77 -11 -60 10 5 23 5 31 0 18 -11 23 -43 5
-36 -8 3 -15 0 -17 -6 -3 -7 -13 -3 -25 9 -24 24 -40 19 -20 -5 9 -13 9 -14 0
-8 -8 4 -13 2 -13 -7 0 -8 -7 -20 -15 -27 -8 -7 -12 -17 -8 -24 4 -6 8 -14 8
-18 0 -5 3 -8 8 -8 4 0 12 0 18 0 6 0 3 7 -5 15 -13 13 -13 20 -3 36 10 16 13
17 15 4 2 -8 8 -12 14 -9 7 4 8 2 4 -4 -4 -6 -14 -8 -24 -5 -14 5 -14 3 3 -14
11 -11 28 -18 37 -15 14 3 15 8 6 28 -6 13 -15 24 -20 24 -4 0 -8 6 -8 13 1 7
8 4 18 -8 12 -14 26 -19 47 -17 17 2 27 0 23 -4 -4 -4 -2 -14 4 -23 10 -12 8
-12 -8 2 -11 9 -26 17 -32 17 -19 0 -14 -18 6 -23 16 -4 16 -5 0 -6 -11 -1
-15 -6 -12 -16 4 -8 2 -15 -4 -15 -11 0 -23 -36 -14 -45 8 -8 11 -35 4 -32 -4
1 -7 -2 -7 -8 0 -5 4 -9 8 -7 5 1 6 -2 2 -8 -5 -8 -11 -7 -21 1 -13 10 -12 14
1 29 10 11 12 20 7 24 -6 3 -8 15 -5 25 3 10 -1 22 -8 27 -9 5 -11 2 -6 -12 7
-18 6 -18 -7 -1 -14 18 -28 23 -24 8 2 -5 -1 -9 -7 -10 -5 -1 -11 4 -11 9 -1
6 -3 12 -4 15 -1 3 -3 10 -4 16 -1 15 -37 40 -48 33 -4 -3 -6 -10 -2 -15 3 -5
10 -7 15 -4 15 10 10 -1 -7 -15 -12 -11 -15 -11 -12 0 2 8 -2 14 -9 15 -7 0
-18 7 -25 15 -11 12 -11 12 4 2 20 -16 34 1 14 17 -7 6 -15 9 -18 6 -2 -3 -5
1 -5 8 0 8 6 14 13 14 7 0 11 -4 9 -8 -6 -9 20 -30 28 -22 11 10 8 25 -3 18
-6 -4 -10 -3 -9 2 3 17 -14 52 -22 47 -5 -3 -6 -11 -3 -17 4 -7 4 -9 -1 -5 -4
4 -14 3 -22 -3 -7 -6 -14 -9 -14 -5 -1 6 -5 35 -8 57 -1 8 -5 8 -15 0 -10 -9
-17 -7 -27 6 -12 16 -12 17 2 6 12 -10 18 -10 27 -1 17 17 15 33 -3 18 -13
-11 -19 -7 -17 12 1 3 -6 9 -14 12 -12 5 -15 2 -10 -9 3 -9 2 -13 -3 -10 -14
8 -8 58 7 61 7 1 8 0 2 -3 -16 -8 -12 -19 9 -20 11 -1 18 4 17 13 -4 27 -21
35 -42 19 -23 -16 -26 -54 -6 -78 9 -10 10 -17 2 -22 -6 -3 -8 -11 -4 -16 3
-5 10 -7 15 -4 5 3 6 -2 2 -11 -5 -13 -3 -15 8 -9 8 4 11 5 7 0 -4 -4 -3 -16
3 -26 17 -33 3 -20 -24 21 -17 24 -23 41 -16 45 6 5 6 12 -3 22 -7 9 -13 24
-13 33 0 9 -6 24 -14 33 -7 10 -10 17 -6 17 4 0 2 6 -5 14 -12 16 -44 10 -34
-5 3 -5 11 -6 17 -3 7 4 8 3 4 -2 -5 -5 -12 -9 -15 -9 -4 0 -12 -4 -19 -8 -6
-4 -15 -3 -18 3 -4 6 -3 10 2 9 20 -3 25 2 13 16 -10 12 -16 13 -27 4 -16 -14
-27 -5 -29 22 -2 32 -4 35 -14 19 -6 -9 -10 -10 -10 -3 0 6 5 15 10 18 6 4 7
11 4 17 -4 7 -2 8 4 4 7 -4 12 -2 12 3 0 17 -28 13 -33 -4 -4 -11 -4 -10 -3 2
2 29 34 28 48 -2 8 -18 14 -22 19 -13 4 7 3 16 -4 21 -9 6 -8 7 3 6 8 -1 22
-1 30 0 12 1 11 4 -3 12 -9 6 -15 16 -11 22 3 7 -1 4 -9 -5 -8 -10 -18 -18
-22 -18 -4 0 -2 7 5 15 12 15 0 22 -14 8 -11 -11 -36 -12 -33 -1 1 6 -3 12 -9
14 -5 3 -11 -7 -12 -21 -3 -47 -5 -54 -14 -49 -4 3 -3 15 4 27 13 24 12 26 -7
47 -13 14 -15 19 -15 38 0 4 -4 0 -10 -8 -6 -9 -5 -19 3 -28 14 -17 18 -40 7
-47 -4 -2 -7 5 -6 18 0 12 -4 21 -11 20 -12 -3 -10 27 2 47 3 6 2 10 -3 10 -9
0 -26 -29 -24 -41 0 -3 -6 -6 -14 -6 -8 0 -11 4 -6 9 12 12 3 55 -14 69 -14
11 -20 -1 -7 -15 4 -3 8 -14 9 -22 1 -9 -1 -13 -4 -9 -4 4 -7 12 -7 18 -1 7
-6 11 -13 10 -6 -2 -9 4 -6 15 5 14 3 14 -12 -3 -13 -16 -15 -16 -11 -3 3 9 1
19 -6 22 -7 3 0 3 16 1 15 -2 27 1 27 6 0 9 -10 12 -41 12 -11 0 -15 8 -14 26
1 14 -2 31 -6 37 -6 7 4 10 31 9 29 -1 40 3 40 13 0 17 22 11 28 -9 3 -11 2
-11 -6 -1 -8 11 -10 11 -15 -1 -3 -8 -3 -17 0 -20 8 -9 53 15 47 24 -3 5 0 9
5 9 6 0 11 4 11 9 0 5 -10 7 -22 4 -17 -3 -19 -2 -10 5 11 7 9 11 -9 15 -19 5
-20 8 -9 22 11 13 10 15 -4 9 -19 -7 -20 -15 -3 -33 10 -11 9 -13 -1 -7 -7 5
-20 -2 -32 -16 l-20 -23 3 37 c1 20 5 34 10 31 4 -2 7 0 7 5 0 6 -7 13 -16 16
-12 5 -15 15 -11 39 l6 32 -15 -32 c-8 -19 -21 -33 -31 -33 -15 0 -14 2 3 15
22 17 12 20 -18 4 -11 -6 -18 -7 -15 -1 4 5 -6 15 -21 21 -25 12 -26 14 -8 26
10 8 15 18 12 24 -4 5 -2 12 4 16 5 3 10 -3 10 -15 0 -11 7 -23 15 -26 13 -5
13 -9 3 -23 -11 -14 -11 -14 3 -4 9 7 20 9 25 5 4 -4 2 1 -5 11 -12 15 -11 17
13 17 14 0 26 4 26 9 0 6 -12 6 -32 0 -18 -5 -34 -9 -36 -9 -2 0 -1 15 3 33 5
24 4 28 -4 17 -10 -13 -11 -13 -11 0 -1 12 -3 11 -11 -3 -9 -16 -11 -16 -27
-1 -15 15 -17 15 -25 -4 -10 -22 -37 -38 -37 -21 0 5 7 20 15 33 14 21 14 23
-10 34 -17 8 -32 9 -44 3 -10 -6 -23 -6 -32 -1 -8 6 -2176 10 -5281 10 l-5268
0 0 -7500z m10475 7471 c-3 -6 -11 -11 -16 -11 -5 0 -4 6 3 14 14 16 24 13 13
-3z m-338 3 c-3 -3 -12 -4 -19 -1 -8 3 -5 6 6 6 11 1 17 -2 13 -5z m426 -25
c-17 -16 -46 -14 -48 4 -2 9 1 15 5 12 5 -3 12 -1 15 5 5 8 11 7 21 -1 8 -7
11 -16 7 -20z m22 21 c3 -5 1 -10 -4 -10 -6 0 -11 5 -11 10 0 6 2 10 4 10 3 0
8 -4 11 -10z m33 -11 c-7 -5 -9 -9 -4 -9 5 0 3 -7 -4 -15 -6 -8 -9 -19 -5 -24
3 -7 0 -8 -9 -5 -9 3 -14 10 -11 14 3 5 0 12 -7 16 -8 5 -4 10 11 16 12 4 20
12 16 18 -4 6 1 7 10 3 13 -5 14 -7 3 -14z m-198 -50 c15 -28 5 -23 -15 7 -9
15 -12 23 -6 20 6 -4 16 -16 21 -27z m80 22 c0 -6 -4 -12 -8 -15 -5 -3 -9 1
-9 9 0 8 4 15 9 15 4 0 8 -4 8 -9z m181 -26 c-23 -13 -53 -17 -46 -5 3 5 13
10 21 10 8 0 14 7 14 15 0 13 2 14 14 3 12 -11 12 -14 -3 -23z m-117 13 c-3
-4 -9 -8 -15 -8 -5 0 -9 4 -9 8 0 5 7 9 15 9 8 0 12 -4 9 -9z m-174 -18 c-14
-9 -7 -14 13 -11 5 1 6 -3 2 -9 -5 -8 -11 -7 -21 1 -19 16 -18 29 4 29 14 0
15 -2 2 -10z m68 -15 c-3 -3 -9 2 -12 12 -6 14 -5 15 5 6 7 -7 10 -15 7 -18z
m52 6 c0 -6 -5 -13 -10 -16 -8 -5 -7 -12 2 -22 15 -18 20 -45 6 -37 -5 3 -7 9
-4 12 4 3 -4 16 -16 30 -16 16 -18 23 -8 20 8 -2 14 3 13 10 -2 6 2 12 7 12 6
0 10 -4 10 -9z m50 -4 c0 4 5 2 10 -3 9 -9 14 -23 24 -70 1 -7 8 -20 16 -30
14 -17 13 -18 -1 -7 -9 7 -18 11 -20 8 -3 -2 -6 6 -6 18 -1 12 -4 31 -6 42 -3
11 -6 24 -6 28 -1 5 -5 6 -10 3 -10 -7 -9 -25 2 -43 4 -6 2 -15 -4 -19 -7 -4
-9 -3 -5 4 3 6 2 13 -3 17 -5 3 -8 15 -6 26 3 13 0 19 -8 16 -7 -3 -11 -10 -9
-16 1 -7 -2 -10 -8 -6 -8 5 -8 11 -1 19 6 7 7 16 3 21 -4 4 3 2 16 -4 12 -6
22 -8 22 -4z m85 -7 c9 7 17 5 26 -7 12 -16 12 -17 -2 -6 -9 7 -19 10 -23 6
-13 -13 -33 -11 -33 3 0 10 4 11 10 5 7 -7 15 -7 22 -1z m-171 -29 c12 -13 14
-21 6 -26 -6 -3 -9 -2 -8 3 2 6 -1 10 -7 10 -5 0 -9 -4 -7 -10 1 -5 -2 -7 -8
-3 -8 5 -8 11 -1 19 6 7 8 16 4 19 -3 4 -4 7 -1 7 3 0 13 -9 22 -19z m-129 0
c3 -5 2 -12 -3 -15 -5 -3 -9 1 -9 9 0 17 3 19 12 6z m318 -18 c-14 -5 -6 -33
9 -33 5 0 7 4 4 8 -2 4 0 14 6 22 8 13 9 12 5 -1 -3 -9 0 -22 6 -28 7 -7 8
-12 2 -11 -28 6 -36 0 -26 -19 8 -14 7 -22 -4 -31 -14 -11 -14 -15 0 -30 13
-15 13 -18 -1 -36 -15 -18 -15 -18 -5 2 12 25 -8 51 -25 34 -7 -7 -10 -1 -10
18 0 17 5 29 13 29 9 0 10 -4 3 -11 -19 -19 -10 -29 9 -12 18 16 19 52 1 41
-4 -2 -15 4 -25 15 -10 11 -15 20 -10 20 4 0 2 6 -4 13 -8 10 -7 14 4 14 7 0
14 -3 13 -6 0 -3 1 -9 2 -13 1 -5 3 -12 4 -18 0 -5 6 -10 11 -9 6 1 8 6 7 13
-11 36 -10 45 6 39 9 -4 11 -8 5 -10z m102 -34 c-4 -5 1 -20 12 -31 10 -12 13
-18 6 -15 -6 4 -19 0 -27 -9 -17 -16 -22 -39 -8 -30 14 9 7 -43 -7 -56 -11
-11 -12 -10 -5 2 12 22 14 39 3 46 -6 3 -7 15 -3 26 4 14 2 18 -5 14 -6 -4
-10 -2 -9 5 2 6 -2 13 -9 16 -9 3 -11 -24 -3 -34 2 -2 3 -6 4 -10 1 -5 4 -13
8 -18 4 -6 2 -17 -4 -25 -8 -13 -9 -12 -5 2 3 9 3 19 -1 23 -4 4 -7 11 -7 16
0 5 -4 8 -10 7 -5 -2 -9 -7 -7 -11 1 -5 -2 -5 -8 -2 -8 5 -6 12 4 24 10 11 12
21 6 27 -6 6 -3 10 9 11 11 1 25 -5 31 -12 6 -8 18 -11 26 -8 11 4 12 9 3 19
-10 12 -5 34 7 34 3 0 2 -5 -1 -11z m-245 -5 c0 -8 -19 -13 -24 -6 -3 5 1 9 9
9 8 0 15 -2 15 -3z m86 -50 c1 -9 0 -13 -4 -10 -3 4 -7 14 -8 22 -1 9 0 13 4
10 3 -4 7 -14 8 -22z m91 -63 c0 -11 -5 -18 -9 -15 -4 3 -5 11 -1 19 7 21 12
19 10 -4z m62 -75 c9 -11 9 -16 -1 -22 -7 -4 -10 -4 -6 1 4 4 3 14 -3 22 -6 7
-9 13 -6 13 2 0 10 -6 16 -14z m132 -83 c13 -16 12 -17 -3 -4 -17 13 -22 21
-14 21 2 0 10 -8 17 -17z m-67 -19 c3 -8 2 -12 -4 -9 -6 3 -10 10 -10 16 0 14
7 11 14 -7z m-19 -22 c-3 -3 -11 0 -18 7 -9 10 -8 11 6 5 10 -3 15 -9 12 -12z
m110 0 c-3 -3 0 -11 6 -19 17 -20 5 -16 -14 5 -15 16 -15 19 -2 19 8 0 13 -3
10 -5z m40 -31 c-3 -5 -1 -12 5 -16 5 -3 15 -15 20 -25 8 -16 8 -18 -4 -14 -9
3 -14 11 -13 17 1 7 -3 11 -10 10 -6 -1 -10 5 -8 15 5 23 4 22 11 22 3 0 3 -4
-1 -9z m152 -96 c4 -4 2 -5 -4 -1 -8 4 -13 2 -14 -6 0 -10 -2 -11 -6 0 -4 10
-8 10 -21 0 -15 -11 -15 -11 -4 4 13 17 36 18 49 3z m0 -30 c0 -8 -4 -12 -9
-9 -5 3 -6 10 -3 15 9 13 12 11 12 -6z m-42 -44 c-3 -5 -1 -12 5 -16 5 -3 10
-11 10 -18 0 -6 -6 -2 -14 8 -13 18 -13 35 0 35 3 0 3 -4 -1 -9z m432 -17 c-3
-3 -12 -4 -19 -1 -8 3 -5 6 6 6 11 1 17 -2 13 -5z m-1 -29 c-3 -9 2 -20 13
-27 11 -6 17 -18 14 -25 -3 -7 1 -13 8 -13 10 0 10 -3 2 -11 -15 -15 -36 -1
-29 18 4 9 2 11 -6 7 -7 -5 -9 -2 -5 9 5 14 2 15 -19 7 -39 -15 -41 -12 -9 15
22 18 25 23 10 19 -16 -5 -17 -4 -5 5 21 15 33 14 26 -4z m-280 -31 c1 -9 0
-13 -4 -10 -3 4 -7 14 -8 22 -1 9 0 13 4 10 3 -4 7 -14 8 -22z m401 -20 c-3
-3 -12 -4 -19 -1 -8 3 -5 6 6 6 11 1 17 -2 13 -5z m-283 -66 c1 -7 6 -20 11
-28 8 -13 7 -13 -8 -1 -9 7 -14 17 -11 22 3 5 0 9 -6 9 -6 0 -8 5 -5 11 8 12
16 7 19 -13z m-49 -7 c-3 -5 -1 -12 5 -16 5 -3 10 -1 10 6 0 7 3 10 6 6 3 -3
3 -11 -1 -17 -5 -8 -11 -8 -21 1 -12 10 -11 29 2 29 3 0 3 -4 -1 -9z m180 -11
c-3 -5 -12 -10 -18 -10 -7 0 -6 4 3 10 19 12 23 12 15 0z m12 -21 c-17 -10
-17 -11 0 -27 10 -9 14 -14 9 -9 -17 13 -25 8 -21 -13 2 -11 0 -18 -5 -15 -4
3 -7 13 -5 23 1 9 -3 23 -9 31 -8 11 -8 13 1 8 6 -4 14 -3 18 3 3 5 12 10 18
10 7 0 4 -5 -6 -11z m88 -99 c-10 -11 -15 -20 -10 -20 4 0 2 -6 -4 -13 -6 -8
-7 -18 -3 -22 4 -5 1 -5 -6 -1 -11 6 -11 11 0 23 7 9 11 17 9 17 -2 1 2 11 9
23 8 12 16 20 19 18 2 -3 -4 -14 -14 -25z m32 0 c-2 -11 -6 -23 -10 -26 -4 -4
-1 -14 6 -23 11 -14 10 -14 -5 -2 -14 11 -18 11 -18 1 0 -8 -3 -11 -6 -7 -3 3
-2 12 2 19 5 7 9 15 10 18 2 12 16 40 20 40 2 0 3 -9 1 -20z m-120 -15 c0 -8
-4 -12 -9 -9 -5 3 -6 10 -3 15 9 13 12 11 12 -6z m273 -3 c0 -4 -9 -8 -21 -9
-17 -2 -18 1 -9 12 12 14 30 12 30 -3z m-90 -67 c-4 -5 -6 -18 -5 -28 2 -10
-1 -14 -8 -10 -7 4 -8 0 -3 -13 6 -15 5 -16 -5 -7 -8 8 -9 16 -2 25 6 7 9 28
7 46 -2 31 -1 32 11 15 7 -10 10 -22 5 -28z m31 6 c-4 -9 -7 -28 -6 -43 1 -15
-2 -25 -7 -22 -7 5 -10 -3 -7 -23 1 -5 6 -7 12 -5 7 2 6 -2 -1 -11 -7 -8 -8
-18 -4 -22 4 -5 1 -5 -6 -1 -7 4 -10 11 -7 16 3 5 1 11 -5 15 -7 4 -6 14 2 28
17 31 19 79 5 96 -10 12 -9 12 10 1 15 -10 19 -19 14 -29z m-71 -26 c-6 -8 -8
-20 -4 -27 5 -10 4 -10 -6 -1 -11 10 -11 15 0 28 7 8 15 15 17 15 3 0 0 -7 -7
-15z m224 -13 c2 -4 -4 -8 -15 -8 -10 0 -19 4 -19 8 0 4 6 8 14 8 8 0 17 -4
20 -8z m6 -26 c0 -11 -19 -15 -25 -6 -3 5 1 10 9 10 9 0 16 -2 16 -4z m2 -54
c-6 -2 -9 -9 -5 -15 3 -7 -3 -4 -15 7 -27 23 -19 40 11 24 14 -7 17 -13 9 -16z
m-86 -17 c-1 -8 -5 -17 -8 -21 -5 -4 -4 16 1 34 3 9 9 -1 7 -13z m-5 -60 c17
3 20 -17 5 -32 -4 -4 -6 -1 -4 7 2 8 -2 14 -9 15 -7 0 -18 7 -25 15 -11 12
-11 12 2 3 8 -6 22 -9 31 -8z m359 -36 c0 -5 -10 -9 -22 -10 -18 -1 -16 -3 10
-10 19 -6 32 -16 32 -26 0 -15 -1 -15 -12 -1 -7 9 -24 18 -38 20 -20 2 -24 -1
-22 -15 2 -11 -4 -27 -13 -37 -14 -16 -14 -18 2 -31 15 -12 16 -12 10 3 -7 19
16 42 35 35 8 -4 7 -6 -4 -6 -11 -1 -15 -6 -11 -16 3 -9 -2 -22 -13 -30 -11
-8 -14 -15 -8 -15 5 0 16 6 23 13 11 10 13 8 8 -10 -5 -22 7 -37 28 -38 6 0
10 -8 10 -17 0 -10 5 -17 10 -16 6 1 8 9 7 18 -6 22 -23 41 -33 34 -5 -3 -9 5
-9 18 l0 22 15 -21 c14 -20 52 -22 40 -2 -3 4 -13 5 -22 2 -11 -4 -14 -3 -9 6
5 7 15 10 23 7 8 -3 11 -1 8 4 -3 6 -1 10 4 10 14 0 7 -43 -7 -48 -8 -2 -6 -9
6 -20 10 -10 11 -12 3 -7 -12 8 -13 6 -8 -7 7 -20 -17 -45 -28 -28 -3 6 -10 8
-15 5 -5 -3 -12 -1 -15 5 -4 6 -1 9 6 8 6 -2 14 3 17 11 2 8 0 11 -5 8 -6 -4
-18 2 -28 13 -10 11 -23 20 -28 20 -6 0 -3 -8 6 -18 14 -15 14 -19 3 -19 -8 0
-15 3 -14 6 0 3 -1 9 -2 14 -1 4 -3 16 -4 27 0 11 -5 20 -11 20 -5 -1 -9 -12
-8 -27 1 -14 0 -23 -4 -19 -3 3 -7 16 -7 28 -1 13 -6 23 -11 23 -6 0 -9 -3 -8
-6 1 -3 -4 -6 -11 -6 -7 0 -13 10 -12 21 1 13 -4 20 -13 18 -12 -3 -12 0 -2
12 7 9 16 15 19 14 19 -2 22 4 12 21 -5 11 -6 22 -2 25 5 3 9 0 10 -7 0 -7 3
-22 6 -34 2 -13 2 -22 -2 -20 -4 1 -8 -2 -9 -8 -2 -5 5 -10 15 -10 11 0 16 7
15 20 -1 11 0 14 3 7 10 -21 24 -2 18 24 -4 15 -2 24 6 24 6 0 8 5 5 10 -3 6
3 10 14 10 12 0 21 5 21 11 0 5 5 7 10 4 6 -3 10 -10 10 -16z m-235 -28 c-2
-9 -4 -17 -5 -18 -2 -2 -3 -12 -4 -22 0 -11 -4 -22 -7 -25 -5 -5 -5 40 0 52 4
9 0 17 -8 17 -5 0 -12 2 -15 6 -3 3 5 5 18 5 16 0 23 -5 21 -15z m235 -20 c0
-6 -9 -9 -19 -8 -11 0 -17 5 -15 9 7 11 34 10 34 -1z m20 -31 c0 -5 -4 -10
-10 -10 -5 0 -10 5 -10 10 0 6 5 10 10 10 6 0 10 -4 10 -10z m54 4 c9 -3 14
-10 11 -14 -3 -5 3 -6 14 -3 10 3 22 0 25 -6 5 -7 -2 -11 -18 -11 -15 0 -26
-7 -29 -17 -3 -13 -5 -11 -7 7 -1 14 -2 28 -1 32 0 4 -6 5 -14 2 -8 -4 -15
-10 -15 -15 0 -5 -13 -9 -30 -9 -16 0 -30 4 -30 9 0 5 8 7 18 4 10 -2 24 3 31
11 15 18 22 19 45 10z m-234 -79 c0 -12 -19 -12 -23 0 -4 9 -1 12 9 8 7 -3 14
-7 14 -8z m47 -25 c-6 -11 -13 -17 -16 -15 -2 3 1 11 7 18 9 10 8 17 -1 27
-10 12 -9 12 5 1 14 -10 15 -16 5 -31z m283 4 c0 -29 -3 -34 -13 -26 -13 11
-39 2 -39 -13 0 -4 6 -12 14 -17 10 -8 9 -9 -4 -4 -19 6 -51 -20 -42 -35 3 -5
10 -7 15 -3 5 3 7 9 5 13 -3 4 1 8 9 8 13 0 13 -3 0 -17 -14 -16 -49 -24 -40
-10 3 4 -4 15 -14 24 -16 15 -19 15 -34 -2 -10 -10 -15 -22 -12 -25 3 -4 2 -5
-2 -2 -4 3 -8 16 -9 28 -2 12 0 16 3 9 4 -10 13 -6 34 14 26 25 28 26 24 6 -2
-12 0 -24 6 -27 8 -6 13 9 10 29 -1 5 5 6 13 3 9 -4 18 -2 21 3 4 6 -1 10 -9
10 -8 0 -18 5 -22 11 -4 8 1 9 16 4 15 -5 20 -4 16 4 -4 6 -2 19 4 28 9 15 10
14 5 -7 -5 -22 -5 -23 6 -6 9 15 13 16 20 5 6 -10 9 -8 9 9 0 12 2 22 5 22 3
0 5 -16 5 -36z m-203 -39 c0 -8 -4 -12 -9 -9 -5 3 -6 10 -3 15 9 13 12 11 12
-6z m227 -37 c15 -10 2 -20 -16 -13 -10 4 -14 14 -10 28 4 15 7 17 10 7 3 -8
10 -18 16 -22z m-57 -26 c-10 -10 -14 -22 -10 -27 5 -4 2 -5 -5 -1 -9 6 -8 13
5 31 10 13 20 21 22 19 2 -2 -3 -12 -12 -22z m-170 -7 c0 -8 -4 -12 -9 -9 -5
3 -6 10 -3 15 9 13 12 11 12 -6z m99 -17 c3 -4 12 -4 18 -2 14 5 42 -23 33
-33 -4 -3 -2 -14 3 -24 6 -10 6 -20 2 -23 -5 -3 -9 0 -10 7 -1 7 -3 23 -4 36
-2 13 -9 26 -17 29 -9 3 -11 0 -5 -9 6 -11 4 -11 -10 1 -22 18 -46 22 -46 7 0
-5 -3 -8 -6 -4 -3 3 -3 10 0 15 6 11 31 10 42 0z m34 -104 c0 -8 -19 -13 -24
-6 -3 5 1 9 9 9 8 0 15 -2 15 -3z m217 -59 c0 -8 -4 -12 -9 -9 -5 3 -6 10 -3
15 9 13 12 11 12 -6z m-1 -51 c0 -20 -11 -25 -11 -6 0 4 -3 12 -7 18 -4 6 -1
11 5 11 7 0 13 -11 13 -23z m-59 -9 c0 -8 -4 -12 -9 -9 -5 3 -6 10 -3 15 9 13
12 11 12 -6z m56 -60 c-3 -9 -8 -14 -10 -11 -3 3 -2 9 2 15 9 16 15 13 8 -4z
m48 -2 c13 -16 12 -17 -3 -4 -14 11 -18 11 -18 1 0 -8 -3 -11 -6 -7 -5 5 3 27
10 27 2 0 10 -8 17 -17z m74 -82 c3 -5 2 -12 -3 -15 -5 -3 -9 1 -9 9 0 17 3
19 12 6z m-35 -25 c0 -2 -7 -7 -16 -10 -8 -3 -12 -2 -9 4 6 10 25 14 25 6z
m87 -18 c2 -17 0 -19 -7 -8 -5 8 -6 18 -4 22 8 12 10 10 11 -14z m156 -11 c-4
-6 1 -8 11 -4 12 5 8 -3 -11 -23 -33 -35 -40 -38 -19 -8 10 14 12 26 6 33 -7
8 -5 12 5 12 8 0 11 -5 8 -10z m-108 -16 c3 -5 2 -12 -3 -15 -5 -3 -9 1 -9 9
0 17 3 19 12 6z m76 -14 c-10 -9 -11 -8 -5 6 3 10 9 15 12 12 3 -3 0 -11 -7
-18z m-291 -1 c0 -3 -4 -8 -10 -11 -5 -3 -10 -1 -10 4 0 6 5 11 10 11 6 0 10
-2 10 -4z m185 -15 c3 -5 2 -12 -3 -15 -5 -3 -9 1 -9 9 0 17 3 19 12 6z m156
-18 c10 -11 10 -14 2 -9 -20 11 -15 -8 9 -40 16 -20 17 -25 5 -15 -23 18 -48
66 -40 75 9 8 9 8 24 -11z m-40 -26 c-6 -8 -7 -18 -3 -22 4 -5 1 -5 -6 -1 -10
6 -10 11 -1 22 6 8 14 14 16 14 3 0 0 -6 -6 -13z m49 -53 c0 -8 -19 -13 -24
-6 -3 5 1 9 9 9 8 0 15 -2 15 -3z m80 -75 c0 -5 -5 -9 -12 -9 -6 0 -8 3 -5 7
4 3 1 13 -6 22 -11 14 -10 14 6 2 9 -7 17 -17 17 -22z m45 0 c0 -5 5 -9 10 -8
6 1 9 5 7 11 -1 5 2 7 8 3 7 -4 8 -11 2 -18 -5 -7 -8 -20 -7 -29 2 -10 -2 -16
-8 -15 -7 1 -10 -5 -9 -13 2 -8 1 -13 -1 -10 -3 3 -6 10 -7 15 -1 6 -9 19 -18
30 -17 20 -17 20 4 2 23 -19 40 -12 22 11 -13 15 -21 49 -10 37 4 -4 7 -11 7
-16z m-38 -54 c0 -8 -4 -12 -9 -9 -5 3 -6 10 -3 15 9 13 12 11 12 -6z m356
-35 c-3 -12 -8 -19 -11 -16 -5 6 5 36 12 36 2 0 2 -9 -1 -20z m-137 -57 c-7
-7 -21 -4 -21 5 0 4 -4 14 -9 22 -6 9 -1 7 12 -4 12 -11 20 -21 18 -23z m-39
2 c0 -8 -4 -12 -9 -9 -5 3 -6 10 -3 15 9 13 12 11 12 -6z m26 -46 c-8 -8 -13
-7 -18 2 -5 8 -4 10 3 5 7 -4 12 -2 12 5 0 7 3 9 7 6 4 -4 2 -12 -4 -18z m81
-42 c10 11 37 12 30 2 -3 -5 -9 -7 -14 -4 -5 3 -11 1 -15 -5 -9 -15 -22 -12
-29 6 -5 13 -4 14 7 6 8 -7 17 -9 21 -5z m23 -24 c-4 -3 -1 -13 6 -22 10 -14
10 -14 -4 -4 -9 7 -18 10 -21 7 -3 -3 -9 0 -14 7 -4 7 -3 10 4 5 6 -3 13 -2
17 4 3 5 9 10 12 10 4 0 3 -3 0 -7z m78 -25 c5 4 5 1 1 -6 -6 -10 -11 -10 -22
-1 -8 6 -14 14 -14 16 0 3 6 0 13 -6 8 -6 18 -7 22 -3z m-21 -114 c3 -8 2 -12
-4 -9 -6 3 -10 10 -10 16 0 14 7 11 14 -7z m326 -24 c0 -5 -5 -10 -11 -10 -5
0 -7 5 -4 10 3 6 8 10 11 10 2 0 4 -4 4 -10z m-185 -70 c-3 -5 -12 -10 -18
-10 -7 0 -6 4 3 10 19 12 23 12 15 0z m29 -6 c3 -8 2 -12 -4 -9 -6 3 -10 10
-10 16 0 14 7 11 14 -7z m116 -49 c0 -8 -3 -16 -7 -18 -5 -3 -8 5 -8 18 0 13
3 21 8 18 4 -2 7 -10 7 -18z m170 -75 c-15 -9 -13 -11 12 -14 15 -1 22 -23 9
-31 -7 -4 -8 0 -4 11 4 11 3 15 -5 10 -6 -3 -14 -1 -18 5 -5 9 -11 6 -21 -7
-13 -17 -13 -17 -9 6 2 14 5 25 5 25 1 1 11 2 23 2 18 2 20 0 8 -7z m-155 -19
c3 -5 2 -12 -3 -15 -5 -3 -9 1 -9 9 0 17 3 19 12 6z m102 -21 c-2 -11 -6 -22
-9 -26 -4 -3 -5 2 -3 13 2 10 4 21 4 26 1 4 3 7 6 7 3 0 4 -9 2 -20z m67 -36
c3 -8 2 -12 -4 -9 -6 3 -10 10 -10 16 0 14 7 11 14 -7z m146 1 c5 3 12 0 16
-6 5 -9 0 -10 -15 -6 -21 5 -22 4 -7 -12 15 -16 15 -20 1 -31 -8 -7 -12 -17
-8 -23 3 -6 1 -7 -5 -3 -7 4 -12 2 -12 -5 0 -7 -3 -9 -7 -6 -3 4 3 18 15 30
12 13 20 26 16 29 -3 4 -19 -8 -36 -25 -17 -18 -26 -25 -20 -17 11 16 -9 56
-21 43 -4 -3 -1 -13 5 -22 7 -9 8 -13 4 -9 -5 4 -16 2 -25 -5 -14 -11 -14 -10
-2 6 7 9 10 17 6 17 -4 0 -2 7 6 16 11 14 14 13 30 -7 16 -22 17 -22 27 -2 6
11 9 23 6 26 -3 3 -2 11 2 18 6 10 9 10 12 1 2 -7 8 -10 12 -7z m-162 -30 c-3
-3 -9 2 -12 12 -6 14 -5 15 5 6 7 -7 10 -15 7 -18z m212 -17 c11 -22 10 -22
-4 -4 -12 15 -16 16 -16 5 0 -8 5 -20 12 -27 8 -8 8 -15 0 -25 -7 -8 -10 -16
-7 -19 3 -2 -1 -5 -9 -5 -8 0 -14 5 -13 11 1 6 -4 10 -11 8 -8 -1 -11 2 -8 7
4 5 15 8 26 6 11 -2 20 0 20 6 0 8 -15 13 -33 10 -4 -1 0 10 9 24 20 30 21 31
34 3z m36 -7 c-4 -5 -1 -11 6 -13 7 -3 3 -7 -10 -10 -19 -5 -20 -4 -11 13 5
10 12 19 15 19 3 0 3 -4 0 -9z m120 -25 c32 -24 7 -30 -28 -7 -27 17 -29 21
-12 21 11 0 29 -6 40 -14z m-311 -14 c-3 -3 -11 0 -18 7 -9 10 -8 11 6 5 10
-3 15 -9 12 -12z m35 -22 c0 -13 -1 -13 -10 0 -5 8 -10 22 -10 30 0 13 1 13
10 0 5 -8 10 -22 10 -30z m164 15 c-4 -8 -8 -15 -10 -15 -2 0 -4 7 -4 15 0 8
4 15 10 15 5 0 7 -7 4 -15z m-28 -29 c0 -19 -3 -33 -7 -30 -4 2 -10 -2 -13 -8
-2 -7 -3 -2 -1 12 2 14 4 26 6 28 1 1 3 7 4 12 1 6 3 12 4 15 3 15 7 1 7 -29z
m207 11 c4 3 7 1 7 -5 0 -6 -11 -14 -25 -18 -14 -3 -25 -12 -25 -20 0 -20 -17
-17 -29 4 -10 16 -10 15 -11 -3 l-1 -20 -9 20 c-12 28 -12 37 0 30 6 -3 10 -1
10 4 0 6 7 11 16 11 9 0 12 -5 8 -11 -4 -7 -1 -10 7 -7 8 3 12 14 10 24 -3 18
-2 18 16 1 11 -9 23 -14 26 -10z m-289 -33 c3 -8 2 -12 -4 -9 -6 3 -10 10 -10
16 0 14 7 11 14 -7z m109 -9 c4 -8 3 -16 -1 -19 -4 -3 -9 4 -9 15 -2 23 3 25
10 4z m-63 -1 c0 -8 -19 -13 -24 -6 -3 5 1 9 9 9 8 0 15 -2 15 -3z m33 -34
c-3 -11 -10 -23 -16 -27 -5 -3 -8 -2 -5 3 3 5 8 17 11 27 9 24 16 22 10 -3z
m-23 6 c0 -2 -9 -6 -20 -9 -11 -3 -18 -1 -14 4 5 9 34 13 34 5z m75 -33 c-2
-10 -4 -19 -4 -21 -1 -2 -6 0 -11 3 -8 5 -7 11 1 21 15 18 18 18 14 -3z m126
-116 c-10 -9 -11 -8 -5 6 3 10 9 15 12 12 3 -3 0 -11 -7 -18z m239 13 c0 -5
-2 -10 -4 -10 -3 0 -8 5 -11 10 -3 6 -1 10 4 10 6 0 11 -4 11 -10z m88 -45
c-3 -3 -9 2 -12 12 -6 14 -5 15 5 6 7 -7 10 -15 7 -18z m-337 -2 c13 -16 12
-17 -3 -4 -17 13 -22 21 -14 21 2 0 10 -8 17 -17z m78 -26 c0 -9 -2 -8 -6 1
-2 6 -10 9 -15 6 -7 -4 -8 -2 -4 5 9 13 26 5 25 -12z m-44 -5 c-3 -3 0 -11 6
-19 10 -11 15 -11 28 -1 14 11 14 11 4 -3 -7 -9 -9 -20 -5 -25 4 -4 0 -3 -9 4
-10 7 -19 8 -27 2 -9 -7 -9 -7 -2 2 7 8 5 17 -5 28 -13 15 -13 17 0 17 8 0 13
-3 10 -5z m67 -46 c7 4 8 2 4 -5 -9 -13 -26 -5 -25 12 0 9 2 8 6 -1 2 -6 10
-9 15 -6z m223 5 c3 -5 1 -12 -5 -16 -5 -3 -10 1 -10 9 0 18 6 21 15 7z m-198
-48 c0 -9 -4 -10 -14 -2 -7 6 -13 12 -13 14 0 1 6 2 13 2 8 0 14 -6 14 -14z
m37 -11 c3 -5 -1 -9 -9 -9 -8 0 -12 4 -9 9 3 4 7 8 9 8 2 0 6 -4 9 -8z m134
-19 c-2 -13 3 -17 17 -16 11 1 15 0 9 -3 -6 -2 -9 -21 -8 -42 1 -20 0 -31 -3
-24 -2 6 -10 9 -16 5 -7 -4 -6 1 2 10 14 18 8 52 -8 43 -5 -4 -8 2 -6 11 2 10
4 21 4 26 1 4 3 7 6 7 3 0 5 -8 3 -17z m179 -25 c1 -11 -2 -29 -8 -40 -6 -11
-6 -18 0 -18 5 0 11 6 14 13 3 6 4 2 4 -11 -1 -13 -6 -21 -14 -18 -7 3 -10 -1
-6 -10 3 -8 8 -12 11 -10 3 3 12 0 20 -7 13 -10 15 -9 10 4 -5 13 -2 16 14 11
20 -5 20 -6 2 -19 -25 -18 -24 -68 2 -68 31 0 45 -15 41 -43 -3 -17 3 -35 15
-48 17 -19 17 -22 3 -34 -13 -10 -18 -8 -36 14 -11 14 -24 24 -29 21 -5 -3
-11 -1 -14 4 -4 5 2 8 11 6 27 -4 46 14 32 32 -10 11 -15 11 -33 -4 -16 -14
-18 -14 -8 -2 10 13 10 19 -2 28 -9 7 -12 23 -10 41 4 22 0 32 -15 42 -12 7
-21 18 -21 25 0 7 -6 12 -12 11 -7 -2 -14 8 -15 22 l-2 25 8 -25 c8 -22 9 -22
11 -5 1 11 2 26 1 33 -1 6 3 12 9 12 5 0 10 5 10 11 0 6 -7 9 -15 5 -8 -3 -15
-1 -15 3 0 8 15 18 30 20 3 1 6 -9 7 -21z m-59 -9 c18 -11 17 -13 -5 -37 -12
-13 -20 -29 -17 -34 4 -6 9 -6 14 2 5 8 9 7 14 -5 3 -10 2 -23 -3 -29 -4 -6
-7 -19 -5 -29 1 -11 0 -16 -4 -13 -10 11 -11 36 -1 42 5 3 9 10 9 16 0 6 -10
3 -22 -8 -15 -12 -18 -13 -10 -3 10 13 9 19 -3 29 -8 7 -13 16 -10 20 3 5 1
11 -4 14 -16 10 -21 -22 -5 -35 9 -8 11 -16 5 -23 -6 -6 -8 -21 -6 -31 2 -11
4 -22 4 -25 1 -3 5 0 9 7 6 9 11 7 19 -7 10 -15 9 -21 -5 -32 -15 -12 -16 -11
-3 5 7 9 11 18 7 18 -3 1 -10 2 -15 3 -24 3 -37 42 -20 62 6 8 6 14 0 18 -5 3
-11 3 -14 -1 -2 -5 -3 -3 -1 3 1 6 -3 17 -9 24 -9 9 -9 11 -1 7 7 -4 15 0 18
8 3 8 11 14 18 13 7 -2 13 3 14 10 4 27 6 27 32 11z m-92 -71 c5 4 6 3 2 -2
-4 -5 -3 -15 3 -22 7 -9 6 -14 -3 -20 -7 -4 -10 -3 -5 1 4 5 -3 20 -15 34 -13
14 -16 20 -7 13 9 -6 20 -8 25 -4z m270 -1 c3 -3 3 -11 -1 -17 -5 -8 -11 -7
-23 2 -12 10 -14 10 -8 1 4 -7 3 -13 -2 -13 -5 0 -12 8 -14 18 -4 13 1 17 18
17 13 -1 27 -4 30 -8z m-147 -29 c-3 -20 12 -48 23 -42 5 3 4 13 -4 22 -12 15
-11 16 5 3 11 -9 14 -18 8 -25 -13 -16 -12 -29 6 -48 13 -15 13 -16 -4 -14
-10 2 -18 11 -19 22 0 10 -4 27 -9 37 -6 15 -10 16 -16 5 -6 -8 -8 -5 -5 12 3
14 5 28 5 33 1 4 3 7 6 7 3 0 5 -6 4 -12z m191 -27 c0 -4 -3 -11 -7 -15 -10
-10 -14 -48 -5 -42 5 3 9 -1 9 -9 0 -9 -10 -15 -24 -15 -26 0 -31 -21 -8 -40
17 -14 21 0 4 17 -9 9 -5 11 15 9 14 -2 26 0 27 3 5 38 4 51 -3 51 -4 0 -8 5
-8 12 0 9 3 9 11 1 6 -6 17 -10 23 -9 6 2 8 1 4 -1 -5 -3 -8 -14 -8 -26 0 -12
-7 -31 -15 -41 -8 -11 -15 -14 -15 -8 0 7 -5 12 -10 12 -7 0 -7 -8 1 -22 10
-19 13 -20 23 -6 11 15 13 14 25 -4 10 -16 10 -22 1 -28 -8 -5 -9 -10 -2 -14
15 -9 34 28 22 42 -7 9 -7 9 3 2 6 -6 17 -25 24 -43 8 -23 12 -26 12 -12 1 16
3 17 10 5 7 -10 4 -18 -10 -28 -20 -14 -17 -38 3 -26 6 4 8 2 4 -4 -3 -6 -1
-14 5 -17 5 -4 8 -13 5 -20 -3 -8 2 -19 9 -25 12 -10 14 -7 13 12 0 12 0 34 1
48 2 23 3 24 11 5 5 -11 9 -15 9 -8 1 7 8 10 18 6 14 -6 12 -8 -9 -15 -21 -7
-26 -14 -22 -32 2 -15 -3 -29 -14 -37 -9 -7 -14 -9 -10 -5 4 5 3 15 -4 23 -9
11 -14 11 -32 -4 -15 -13 -17 -14 -8 -2 6 9 8 19 4 23 -4 4 -1 6 7 4 7 -2 16
3 19 11 3 9 0 11 -7 7 -7 -5 -10 -2 -9 6 2 7 -4 12 -12 10 -8 -2 -12 0 -8 4 4
4 3 13 -4 21 -6 8 -7 13 -2 12 20 -4 24 2 14 21 -6 11 -16 18 -22 14 -7 -4 -6
-10 3 -16 11 -8 11 -9 -1 -5 -8 2 -23 -3 -33 -12 -10 -8 -17 -11 -15 -6 2 6
-1 10 -7 10 -5 0 -9 -3 -8 -6 1 -3 -5 -6 -13 -6 -10 0 -11 4 -4 11 6 6 4 16
-8 30 -9 11 -11 16 -4 12 18 -11 14 8 -8 37 -11 14 -18 35 -16 49 2 12 -2 30
-9 38 -23 29 -26 50 -5 50 10 0 22 5 25 10 7 11 45 -5 45 -19z m-334 1 c-3 -3
0 -12 6 -21 10 -13 10 -14 -2 -4 -16 15 -23 46 -8 37 5 -3 7 -9 4 -12z m234
-12 c0 -5 -5 -10 -11 -10 -5 0 -7 5 -4 10 3 6 8 10 11 10 2 0 4 -4 4 -10z
m-93 -37 c0 -9 -4 -10 -14 -2 -7 6 -13 12 -13 14 0 1 6 2 13 2 8 0 14 -6 14
-14z m303 -2 c0 -12 -46 -19 -62 -10 -9 6 -4 9 15 9 15 0 27 5 27 11 0 5 5 7
10 4 6 -3 10 -10 10 -14z m-319 -18 c13 -16 12 -17 -3 -4 -14 11 -18 11 -18 1
0 -8 -3 -11 -6 -7 -5 5 3 27 10 27 2 0 10 -8 17 -17z m269 -24 c0 -11 -4 -17
-10 -14 -5 3 -10 13 -10 21 0 8 5 14 10 14 6 0 10 -9 10 -21z m50 -8 c0 -6 -9
-9 -19 -8 -11 0 -17 5 -15 9 7 11 34 10 34 -1z m-276 -29 c3 -5 -1 -9 -9 -9
-8 0 -12 4 -9 9 3 4 7 8 9 8 2 0 6 -4 9 -8z m262 -1 c-4 -5 0 -11 6 -14 7 -2
9 -8 5 -13 -4 -5 -12 -2 -17 6 -13 20 -12 30 1 30 5 0 8 -4 5 -9z m-231 -11
c3 -5 1 -10 -4 -10 -6 0 -11 5 -11 10 0 6 2 10 4 10 3 0 8 -4 11 -10z m331 1
c-4 -5 2 -7 13 -4 10 3 22 0 25 -6 5 -7 -3 -11 -18 -11 -18 0 -26 -6 -27 -17
-1 -12 -4 -9 -8 7 -9 27 -5 40 10 40 6 0 8 -4 5 -9z m-231 -50 c3 -6 -4 -15
-15 -21 -13 -7 -20 -7 -20 0 0 5 8 10 18 10 14 0 15 2 2 10 -9 6 -10 10 -3 10
6 0 14 -4 18 -9z m5 -47 c0 -8 -19 -13 -24 -6 -3 5 1 9 9 9 8 0 15 -2 15 -3z
m67 -7 c6 -4 14 -2 16 3 4 7 5 6 4 -1 -2 -6 -5 -9 -9 -7 -3 2 -16 -6 -29 -17
-18 -15 -20 -15 -10 -2 7 9 11 18 7 18 -3 1 -10 2 -15 3 -5 0 -12 4 -15 7 -9
8 37 5 51 -4z m139 -26 c-3 -5 0 -14 8 -20 14 -12 16 -35 3 -47 -9 -10 13 -35
24 -28 5 3 9 10 9 15 0 6 -4 8 -9 5 -6 -4 -6 5 -2 21 6 20 3 32 -8 41 -14 11
-13 12 4 4 11 -5 27 -7 35 -5 10 3 9 -1 -4 -11 -13 -10 -17 -22 -12 -39 4 -18
0 -29 -17 -43 -12 -10 -19 -15 -14 -10 4 5 -4 21 -17 35 -19 20 -23 30 -15 41
9 13 10 13 7 0 -2 -8 2 -15 7 -15 16 0 14 24 -2 34 -14 7 -11 31 3 31 3 0 3
-4 0 -9z m-69 -56 c0 -8 -3 -13 -5 -10 -3 3 -11 0 -18 -6 -8 -7 -14 -6 -20 2
-4 7 -3 9 3 6 6 -4 16 0 23 8 15 19 17 19 17 0z m142 -17 c6 -18 7 -28 2 -23
-10 12 -25 55 -18 55 3 0 10 -15 16 -32z m-97 -9 c2 -2 1 -3 -1 -2 -2 2 -9 -2
-16 -7 -8 -7 -12 -5 -12 4 0 12 22 16 29 5z m-86 -11 c4 -7 4 -10 -1 -6 -4 4
-14 3 -21 -3 -8 -7 -14 -6 -20 2 -4 7 -3 9 4 5 6 -3 13 -2 17 4 8 13 12 13 21
-2z m29 -17 c3 -5 2 -12 -3 -15 -5 -3 -9 1 -9 9 0 17 3 19 12 6z m52 -6 c0 -8
-4 -12 -9 -9 -5 3 -6 10 -3 15 9 13 12 11 12 -6z m99 3 c4 -7 4 -10 -1 -6 -4
4 -14 3 -22 -4 -11 -9 -10 -15 7 -33 14 -15 18 -25 11 -30 -7 -4 -10 -1 -9 7
2 7 -3 12 -9 11 -7 -2 -12 3 -10 10 1 6 -5 11 -13 9 -10 -2 -6 6 9 22 28 30
28 30 37 14z m-146 -62 c0 -2 -8 -10 -17 -17 -16 -13 -17 -12 -4 4 13 16 21
21 21 13z m74 -31 c-4 -8 -11 -12 -16 -9 -6 4 -5 10 3 15 19 12 19 11 13 -6z
m76 -21 c0 -8 -19 -13 -24 -6 -3 5 1 9 9 9 8 0 15 -2 15 -3z m-7651 -508 c72
-20 126 -58 162 -113 16 -26 29 -42 29 -36 0 27 90 85 161 103 l73 19 345 -45
c436 -57 472 -65 543 -131 l26 -25 74 50 c113 76 192 112 323 145 105 27 136
31 245 30 221 -1 456 -76 650 -206 l85 -57 17 24 c31 42 88 78 146 92 36 9
375 34 904 67 818 50 849 52 912 36 111 -28 181 -97 211 -206 10 -39 20 -161
30 -372 13 -288 13 -320 -2 -380 -9 -36 -26 -80 -37 -97 -19 -28 -187 -214
-554 -612 l-114 -122 54 5 c172 15 254 14 326 -4 126 -33 188 -99 215 -228 21
-102 61 -612 53 -683 -3 -30 -10 -72 -16 -92 -13 -46 -96 -133 -147 -155 l-38
-15 25 -17 c195 -127 301 -285 364 -541 18 -75 41 -189 51 -253 15 -109 15
-123 0 -189 -17 -74 -60 -149 -97 -169 -21 -11 -20 -13 21 -46 93 -78 173
-223 210 -379 29 -126 27 -205 -9 -354 -35 -142 -80 -243 -170 -377 -129 -193
-264 -325 -480 -468 -214 -142 -323 -190 -545 -240 -200 -45 -369 -36 -624 31
-183 49 -254 87 -301 161 l-24 40 -31 -18 c-32 -18 -368 -105 -618 -160 -139
-31 -152 -32 -210 -20 -73 15 -136 49 -169 92 l-24 30 -138 -95 c-170 -118
-235 -140 -338 -116 -69 16 -131 52 -164 96 -15 19 -59 95 -98 168 l-72 134
-43 -77 c-122 -211 -168 -257 -281 -281 -73 -16 -66 -17 -467 90 -161 43 -305
87 -320 98 -26 17 -35 18 -135 6 -199 -23 -455 -65 -794 -133 l-336 -66 -67
15 c-105 25 -182 96 -206 189 -11 46 -12 46 -51 43 -163 -12 -600 -87 -924
-158 -200 -44 -207 -45 -274 -33 -53 10 -80 21 -116 50 l-47 37 -234 -55
c-231 -54 -235 -54 -302 -42 -134 24 -195 89 -232 246 -13 54 -24 87 -24 73
-1 -14 -12 -69 -24 -122 -36 -155 -98 -221 -233 -249 -61 -12 -67 -11 -437 70
-207 45 -390 86 -408 91 -88 26 -155 103 -182 210 -19 76 -22 63 106 505 159
553 276 1063 372 1624 59 345 79 400 160 454 l33 22 -88 31 c-151 54 -296 171
-394 318 -55 83 -77 141 -119 306 -31 121 -32 132 -31 330 l0 205 117 775 c64
426 123 804 131 839 27 115 100 187 217 213 60 14 88 13 350 -8 372 -31 357
-31 416 9 73 49 140 60 307 52 77 -3 148 -8 156 -10 8 -2 85 -6 170 -10 231
-10 313 -25 382 -70 l38 -25 118 19 c176 30 307 41 489 41 189 0 316 -16 507
-64 169 -43 262 -82 378 -160 l94 -64 25 19 c31 24 715 317 794 340 74 22 106
23 174 5z"/>
<path d="M14601 11293 c10 -11 15 -11 27 -1 11 9 14 9 9 1 -4 -6 -2 -15 4 -18
7 -5 10 -1 7 11 -2 12 -13 18 -30 19 -22 2 -26 -1 -17 -12z"/>
<path d="M14636 11232 c-3 -5 3 -17 13 -26 11 -10 22 -13 25 -8 3 5 -3 17 -13
26 -11 10 -22 13 -25 8z"/>
<path d="M14481 11472 c1 -4 0 -9 -1 -12 -7 -19 -7 -39 1 -34 5 3 9 11 9 19 0
7 5 15 12 17 8 3 6 7 -5 11 -9 3 -16 3 -16 -1z"/>
<path d="M14675 11354 c-21 -16 -21 -20 1 -45 8 -9 11 -19 7 -22 -3 -4 0 -7 8
-7 8 0 15 9 15 20 0 12 -5 19 -12 16 -7 -3 -11 2 -9 12 2 9 4 21 4 25 1 5 6 5
13 1 7 -4 8 -3 4 4 -9 14 -7 15 -31 -4z"/>
<path d="M14714 11193 c2 -15 7 -27 11 -26 14 4 14 31 0 43 -11 9 -13 6 -11
-17z"/>
<path d="M14749 11218 c-11 -34 1 -82 15 -59 4 5 2 13 -4 16 -8 5 -8 11 0 20
8 9 8 15 0 20 -5 3 -10 5 -11 3z"/>
<path d="M6895 9919 c-192 -82 -357 -152 -367 -156 -17 -8 11 -74 453 -1052
l169 -374 -140 -385 c-77 -212 -139 -387 -137 -388 6 -6 584 -36 618 -32 l31
3 55 185 c187 637 438 1290 775 2018 49 107 88 195 86 197 -2 1 -157 22 -345
47 l-342 44 -34 -96 c-19 -52 -85 -240 -148 -417 -67 -192 -117 -317 -121
-310 -13 19 -64 184 -92 293 -14 55 -43 205 -66 334 -22 128 -41 234 -42 236
-2 1 -160 -65 -353 -147z"/>
<path d="M9205 10049 c-310 -46 -582 -324 -719 -736 -55 -166 -76 -285 -83
-473 -6 -184 4 -289 43 -444 96 -385 310 -676 599 -816 123 -59 184 -75 300
-74 146 0 263 38 400 129 75 50 231 198 269 258 l18 26 -162 206 c-88 113
-163 205 -166 205 -3 0 -20 -11 -37 -24 -50 -38 -159 -86 -218 -95 -245 -40
-438 225 -439 601 0 193 52 351 148 447 79 79 120 96 233 96 96 0 97 0 200
-52 57 -28 107 -50 110 -47 3 2 82 103 174 226 l169 222 -45 39 c-142 128
-356 250 -499 286 -94 24 -217 32 -295 20z"/>
<path d="M3865 10003 c3 -21 40 -366 81 -768 84 -806 85 -841 38 -944 -34 -78
-112 -151 -189 -180 -74 -28 -202 -29 -260 -2 -89 40 -131 136 -122 275 9 148
124 821 217 1274 50 245 56 282 41 282 -9 1 -166 13 -348 28 -183 15 -333 26
-333 25 0 -2 -53 -356 -117 -786 l-118 -782 1 -195 c0 -217 13 -288 74 -416
110 -229 377 -341 725 -305 463 49 767 145 934 296 52 48 122 154 149 226 45
123 47 186 13 649 -32 432 -102 1313 -105 1317 -1 2 -648 43 -674 43 -8 0 -11
-11 -7 -37z"/>
<path d="M11072 9969 c-426 -26 -776 -50 -779 -53 -4 -4 83 -529 102 -613 3
-12 11 -20 18 -18 35 12 727 89 734 82 2 -2 -135 -150 -303 -328 -314 -332
-797 -855 -822 -890 -12 -17 -6 -58 49 -322 34 -166 66 -306 69 -310 4 -4 103
1 221 12 358 34 859 63 1332 77 l227 7 0 26 c-1 53 -47 591 -51 594 -2 2 -204
-7 -449 -20 -245 -12 -462 -22 -482 -20 l-38 2 43 57 c57 76 280 330 397 453
53 55 163 174 245 265 82 91 205 225 274 298 l124 133 -7 197 c-3 108 -9 248
-13 310 l-6 112 -56 -1 c-31 -1 -404 -23 -829 -50z"/>
<path d="M5150 9974 c-72 -7 -269 -34 -338 -46 l-64 -12 6 -160 c3 -89 9 -623
12 -1188 l6 -1028 32 0 c84 0 284 24 396 46 500 100 954 398 1181 775 128 214
199 522 169 739 -29 213 -103 361 -267 531 -239 248 -466 336 -888 343 -110 2
-220 2 -245 0z m408 -654 c224 -37 352 -183 352 -404 0 -157 -68 -320 -187
-446 -41 -44 -105 -100 -142 -124 -63 -42 -151 -86 -172 -86 -20 0 -5 946 17
1048 5 26 31 28 132 12z"/>
<path d="M10001 9166 c-109 -141 -147 -172 -239 -196 -63 -15 -71 -15 -132 0
-36 9 -99 35 -141 58 -42 23 -83 42 -91 42 -22 0 -63 -51 -80 -97 -8 -25 -13
-84 -12 -173 0 -116 4 -143 23 -189 29 -70 58 -111 80 -111 9 0 53 22 96 49
100 61 174 79 261 61 58 -11 133 -54 165 -93 16 -19 16 -19 36 6 11 14 109
123 219 242 109 119 200 220 202 224 1 5 -24 14 -57 20 -107 21 -189 105 -212
219 -7 34 -15 62 -19 62 -3 -1 -47 -56 -99 -124z"/>
<path d="M3715 8493 c-3 -27 -8 -61 -11 -78 -5 -29 -4 -29 11 -11 13 18 23
136 11 136 -3 0 -8 -21 -11 -47z"/>
<path d="M6749 8455 c-114 -279 -289 -512 -534 -708 -205 -165 -400 -274 -630
-353 -97 -34 -106 -39 -81 -45 76 -21 147 -99 172 -190 19 -69 19 -80 -5 -354
-21 -236 -46 -658 -55 -937 l-6 -158 23 0 c12 0 69 7 127 15 58 8 108 15 112
15 3 0 4 274 1 609 -7 664 -5 693 47 775 63 98 129 120 480 161 118 13 234 27
257 30 l43 6 -35 35 c-44 43 -59 74 -74 149 -17 83 -5 131 131 503 61 168 111
311 111 317 0 5 -17 44 -36 85 l-35 75 -13 -30z"/>
<path d="M8073 8304 c-78 -216 -210 -624 -254 -779 -23 -83 -43 -134 -66 -166
l-33 -46 22 -29 c12 -16 25 -33 29 -37 4 -5 91 39 194 98 230 132 289 151 392
128 36 -8 83 -27 103 -42 43 -30 105 -111 122 -157 l11 -32 62 63 c33 35 75
69 93 77 l32 13 -81 60 c-199 146 -393 427 -484 697 -14 43 -38 132 -53 199
l-28 123 -61 -170z"/>
<path d="M4455 7433 c-16 -9 -61 -29 -98 -43 l-69 -27 31 -22 c47 -34 78 -97
98 -199 10 -50 21 -92 26 -92 4 0 7 8 7 18 0 30 56 106 102 139 25 18 68 36
103 43 l60 13 -47 13 c-54 16 -132 86 -154 139 -16 40 -18 40 -59 18z"/>
<path d="M9822 7338 c-31 -17 -49 -34 -43 -37 6 -4 40 -3 76 3 l64 9 -17 29
c-9 15 -19 28 -22 28 -3 0 -29 -14 -58 -32z"/>
<path d="M10815 7274 c-115 -8 -225 -16 -243 -19 -30 -6 -31 -8 -20 -28 6 -12
19 -51 27 -85 14 -55 15 -80 4 -185 -6 -67 -12 -132 -12 -144 -1 -18 28 6 127
105 137 139 250 230 388 317 l87 55 -74 -1 c-41 -1 -168 -8 -284 -15z"/>
<path d="M7995 7028 c-154 -88 -281 -162 -283 -163 -3 -3 47 -99 356 -680 96
-181 175 -334 175 -341 0 -33 -363 -687 -536 -964 -53 -85 -93 -157 -89 -161
8 -7 541 -150 557 -149 9 0 121 190 370 627 l31 53 189 -360 c105 -198 193
-360 196 -360 13 0 499 342 499 351 0 4 -24 48 -53 96 -95 156 -282 493 -384
691 l-100 193 301 537 c166 295 318 567 339 603 l37 67 -68 6 c-37 3 -173 13
-302 21 -129 8 -263 17 -297 21 l-62 5 -69 -138 c-38 -76 -100 -205 -137 -288
-37 -82 -68 -151 -69 -152 -1 -1 -24 48 -51 110 -112 256 -245 532 -257 534
-7 1 -139 -70 -293 -159z"/>
<path d="M3683 7065 c-244 -34 -444 -63 -447 -66 -2 -2 -16 -78 -31 -169 -92
-563 -280 -1369 -459 -1965 -25 -82 -42 -153 -38 -156 8 -7 660 -149 683 -149
12 0 23 43 54 210 27 148 42 210 51 210 18 0 372 39 405 44 l26 5 43 -202 c23
-111 46 -206 50 -210 6 -7 667 138 679 148 1 2 -26 102 -63 222 -216 719 -375
1372 -471 1936 -18 110 -35 200 -37 201 -2 1 -202 -25 -445 -59z m67 -1131
c38 -225 73 -421 76 -436 l6 -28 -152 0 -152 0 4 23 c2 12 35 209 74 439 38
229 70 415 71 414 2 -1 34 -187 73 -412z"/>
<path d="M6803 7042 l-643 -76 0 -261 c0 -349 20 -2107 25 -2121 2 -7 65 2
192 28 468 97 917 168 1174 185 l101 6 -6 56 c-3 31 -20 170 -38 309 -26 205
-35 252 -48 252 -8 0 -175 -23 -370 -50 -195 -27 -359 -50 -364 -50 -8 0 -2
297 6 305 5 5 210 40 403 70 94 14 179 29 191 31 20 5 20 7 8 92 -7 48 -21
152 -30 232 -9 80 -18 146 -19 148 -1 1 -73 -11 -161 -27 -203 -38 -384 -64
-392 -57 -4 5 16 317 21 323 5 4 388 45 546 58 101 8 185 16 187 17 1 2 -16
139 -39 306 l-41 302 -30 -1 c-17 -1 -320 -35 -673 -77z"/>
<path d="M11494 7101 c-265 -72 -571 -317 -836 -672 -173 -232 -258 -440 -258
-629 0 -165 47 -245 187 -318 137 -71 255 -77 506 -28 275 54 462 66 524 33
145 -78 30 -201 -258 -277 -172 -45 -276 -39 -412 23 -50 23 -56 24 -62 9 -69
-173 -195 -542 -195 -571 0 -14 22 -24 103 -49 137 -42 205 -53 340 -53 186 0
315 36 501 139 283 156 490 365 610 615 64 132 82 270 50 378 -84 281 -298
355 -814 278 -282 -41 -393 -8 -377 112 24 182 308 336 423 228 13 -12 32 -44
42 -70 l17 -48 290 96 c160 52 291 97 293 98 2 1 -6 66 -18 143 -44 302 -134
468 -297 545 -62 29 -78 32 -178 34 -83 2 -127 -2 -181 -16z"/>
<path d="M5043 7027 l-323 -52 0 -1177 c0 -936 3 -1178 13 -1178 6 0 92 18
190 40 354 79 777 149 1037 171 74 7 138 15 141 18 6 6 -56 610 -64 617 -2 2
-163 -17 -358 -41 -195 -25 -356 -45 -358 -45 -5 0 8 702 14 745 2 17 6 93 10
170 6 153 30 487 45 630 14 134 13 155 -7 154 -10 -1 -163 -24 -340 -52z"/>
<path d="M9960 7029 c-168 -26 -315 -51 -328 -54 l-23 -6 1 -1170 c1 -983 3
-1171 15 -1175 15 -6 257 47 475 104 l145 38 -1 54 c0 30 -6 213 -13 405 -18
487 3 1108 54 1646 19 202 19 209 -2 208 -10 0 -155 -23 -323 -50z"/>
<path d="M7683 6242 c-10 -6 -7 -52 12 -207 14 -110 27 -211 30 -225 8 -39 9
-93 1 -116 -5 -17 1 -28 32 -53 l39 -30 62 115 62 116 -108 204 c-59 112 -110
204 -113 204 -3 0 -11 -4 -17 -8z"/>
<path d="M9284 5911 l-31 -57 31 -60 31 -59 3 63 c2 34 2 87 0 117 l-3 54 -31
-58z"/>
<path d="M10521 5142 l1 -47 13 35 c18 46 18 47 0 54 -12 4 -15 -4 -14 -42z"/>
<path d="M10693 14983 c-15 -5 -17 -23 -4 -23 5 0 11 7 15 15 3 8 4 15 3 14
-1 0 -8 -3 -14 -6z"/>
<path d="M10753 14951 c1 -14 9 -26 17 -28 10 -3 11 -2 4 4 -7 4 -14 17 -17
28 -5 16 -5 15 -4 -4z"/>
<path d="M10856 14935 c-9 -26 -7 -32 5 -12 6 10 9 21 6 23 -2 3 -7 -2 -11
-11z"/>
<path d="M10705 14880 c3 -5 8 -10 11 -10 2 0 4 5 4 10 0 6 -5 10 -11 10 -5 0
-7 -4 -4 -10z"/>
<path d="M10821 14876 c-9 -11 -9 -16 0 -21 8 -6 7 -10 -2 -17 -10 -6 -7 -7
10 -3 18 6 22 4 16 -6 -5 -8 1 -5 13 5 28 25 28 28 -5 20 -23 -6 -25 -4 -20
15 6 25 4 26 -12 7z"/>
<path d="M10876 14873 c5 -5 12 -12 16 -18 4 -6 8 -2 8 8 0 9 -7 17 -17 17 -9
0 -12 -3 -7 -7z"/>
<path d="M10935 14840 c-3 -5 -1 -10 4 -10 6 0 11 5 11 10 0 6 -2 10 -4 10 -3
0 -8 -4 -11 -10z"/>
<path d="M10894 14816 c-10 -21 -9 -25 10 -30 27 -7 26 -7 25 0 0 4 5 10 11
14 9 5 6 10 -9 15 -12 3 -19 11 -16 16 4 5 3 9 -2 9 -4 0 -13 -11 -19 -24z
m36 -10 c0 -3 -4 -8 -10 -11 -5 -3 -10 -1 -10 4 0 6 5 11 10 11 6 0 10 -2 10
-4z"/>
<path d="M10944 14755 c-9 -14 -20 -22 -25 -19 -5 3 -9 1 -9 -5 0 -5 6 -12 13
-14 7 -3 5 -6 -5 -6 -21 -1 -21 -2 -8 -36 8 -20 7 -27 -5 -31 -8 -4 -12 -10
-9 -15 3 -5 9 -7 14 -4 5 3 12 0 16 -6 4 -8 3 -9 -4 -5 -22 13 -12 -13 10 -28
12 -9 17 -16 10 -16 -7 0 -10 -5 -7 -10 5 -8 11 -7 21 1 20 17 17 29 -8 29
-12 0 -18 3 -14 8 4 4 12 7 17 7 5 0 9 5 9 10 0 6 -6 10 -12 10 -7 0 -13 11
-15 25 -1 14 -2 30 -3 35 -4 20 13 55 23 48 6 -4 8 0 4 9 -3 9 0 21 6 27 6 6
8 11 4 11 -3 0 -14 -11 -23 -25z"/>
<path d="M11035 14749 c-4 -6 -4 -13 -1 -16 3 -4 6 -1 6 6 0 7 5 9 12 5 7 -4
8 -3 4 4 -9 15 -13 15 -21 1z"/>
<path d="M10962 14713 c-12 -16 -18 -29 -12 -31 6 -2 8 -8 4 -13 -3 -5 5 -9
17 -9 22 0 22 1 4 13 -16 13 -13 43 4 33 3 -3 7 4 7 15 0 10 -1 19 -1 19 -1 0
-11 -12 -23 -27z"/>
<path d="M10783 14715 c0 -8 5 -15 11 -15 6 0 4 -5 -4 -10 -8 -5 -13 -10 -10
-11 3 0 14 -2 25 -4 21 -4 57 -47 65 -77 5 -17 6 -17 18 2 11 18 10 22 -10 30
-17 6 -18 9 -6 9 23 1 30 15 22 46 -4 18 -11 24 -22 20 -8 -3 -21 0 -28 6 -8
6 -20 9 -28 6 -7 -3 -18 -1 -23 4 -6 6 -10 4 -10 -6z m61 -31 c3 -8 1 -14 -4
-14 -6 0 -10 5 -10 11 0 5 -4 8 -8 5 -5 -3 -9 1 -9 8 0 17 23 10 31 -10z m41
-24 c3 -5 1 -10 -4 -10 -6 0 -11 5 -11 10 0 6 2 10 4 10 3 0 8 -4 11 -10z"/>
<path d="M11006 14697 c-10 -7 -17 -17 -16 -22 6 -26 -1 -36 -19 -30 -11 3
-22 2 -25 -3 -3 -6 2 -9 12 -8 13 1 17 -7 17 -39 0 -50 13 -75 27 -51 7 12 5
25 -7 42 -14 21 -14 25 -1 30 17 7 36 -3 36 -18 0 -5 -7 -8 -15 -4 -14 5 -14
2 0 -24 10 -19 20 -27 30 -24 8 4 15 1 15 -5 0 -6 4 -11 10 -11 5 0 7 6 4 14
-3 8 -1 17 5 21 6 3 11 17 11 30 0 13 4 26 9 29 4 3 7 -5 6 -18 -3 -20 1 -24
22 -21 28 3 18 -11 -12 -17 -12 -2 -20 -11 -20 -23 0 -11 -17 -37 -38 -59 -36
-36 -37 -39 -21 -57 12 -13 21 -16 34 -9 13 7 22 4 36 -11 11 -12 18 -23 17
-25 -10 -14 0 -14 16 0 11 10 17 25 14 37 -3 12 1 25 11 32 11 9 13 16 6 27
-5 8 -10 10 -10 4 0 -6 -9 -21 -20 -34 -11 -13 -17 -26 -13 -29 5 -3 9 -13 11
-21 2 -8 -8 -2 -21 15 -14 16 -22 36 -19 45 5 13 3 13 -11 1 -9 -7 -15 -17
-12 -21 3 -5 -3 -7 -12 -6 -9 2 -19 9 -21 17 -3 12 -2 12 6 0 7 -9 12 -10 16
-2 4 6 2 11 -3 11 -6 0 -11 4 -11 8 0 5 23 8 50 6 29 -1 50 2 50 8 0 6 -9 8
-20 5 -21 -5 -48 17 -31 27 5 3 7 16 3 28 -4 15 -2 19 7 14 13 -8 51 20 51 37
0 5 -9 7 -19 4 -15 -3 -21 1 -23 16 -2 11 -8 22 -15 24 -12 4 -29 -33 -25 -54
1 -6 -5 -10 -15 -9 -10 2 -21 -2 -25 -8 -5 -7 -8 -6 -8 3 0 8 8 23 17 33 14
15 14 18 2 13 -9 -3 -21 0 -27 8 -9 10 -5 13 19 11 17 -1 27 1 24 4 -7 7 -12
8 -40 11 -18 1 -20 37 -2 44 6 2 9 7 6 11 -3 3 -13 0 -23 -7z"/>
<path d="M11180 14579 c0 -5 5 -7 10 -4 6 3 10 8 10 11 0 2 -4 4 -10 4 -5 0
-10 -5 -10 -11z"/>
<path d="M11188 14543 c-14 -14 -20 -14 -33 -3 -14 11 -16 11 -13 -1 2 -8 -3
-13 -10 -11 -8 1 -11 -2 -7 -8 3 -5 1 -10 -4 -10 -6 0 -11 -5 -11 -12 0 -6 10
-2 23 9 26 24 47 20 48 -10 0 -14 5 -7 13 18 12 39 12 39 18 13 3 -16 0 -29
-6 -32 -6 -2 -3 -5 7 -5 14 -1 16 5 13 26 -7 37 -19 46 -38 26z"/>
<path d="M11307 14539 c7 -7 15 -10 18 -7 3 3 -2 9 -12 12 -14 6 -15 5 -6 -5z"/>
<path d="M11277 14470 c-3 -13 -11 -18 -26 -15 -12 2 -19 0 -16 -5 3 -4 19 -6
36 -3 21 3 29 1 24 -6 -3 -6 -1 -11 4 -11 14 0 14 17 1 25 -5 3 -10 11 -10 16
0 6 5 7 12 3 7 -4 8 -3 4 4 -11 18 -23 14 -29 -8z"/>
<path d="M10996 14472 c-3 -6 -1 -14 5 -17 14 -9 20 -2 10 14 -6 8 -11 9 -15
3z"/>
<path d="M11196 14457 c-11 -8 -16 -19 -12 -25 3 -5 1 -13 -4 -15 -6 -3 -5 -4
2 -3 7 2 12 11 12 20 -2 13 1 14 12 5 18 -15 23 -9 15 14 -6 15 -9 16 -25 4z"/>
<path d="M11105 14451 c-3 -5 -1 -12 4 -15 5 -3 11 1 15 9 6 16 -9 21 -19 6z"/>
<path d="M11323 14453 c3 -5 1 -18 -4 -31 -8 -22 -10 -22 -34 -6 -23 15 -25
15 -25 0 0 -9 -5 -16 -11 -16 -5 0 -8 4 -4 9 6 10 -27 7 -46 -4 -7 -5 -7 -11
0 -19 6 -7 8 -16 4 -19 -3 -4 -1 -7 5 -7 6 0 14 5 17 10 3 6 1 10 -5 10 -7 0
-10 5 -8 11 5 16 23 11 22 -6 -1 -8 -2 -22 -3 -30 0 -8 -9 -15 -19 -15 -10 0
-19 -7 -19 -15 0 -11 4 -12 13 -4 15 12 29 -5 18 -23 -4 -7 -3 -8 4 -4 7 4 10
-5 8 -30 l-4 -36 23 22 c12 11 22 31 21 43 -1 15 4 22 17 21 14 -2 15 1 6 12
-6 8 -8 14 -3 14 4 0 -1 6 -12 14 -13 10 -23 11 -32 4 -10 -8 -11 -6 -6 8 11
29 25 44 36 38 6 -4 5 -10 -3 -16 -11 -7 -9 -8 4 -4 25 8 44 -4 26 -15 -11 -7
-11 -9 2 -9 8 0 21 6 28 13 11 10 12 8 6 -10 -4 -14 -2 -23 4 -23 6 0 11 9 11
20 0 11 3 20 8 21 4 0 15 2 25 4 15 3 16 1 6 -11 -6 -7 -15 -12 -19 -9 -7 5
-23 -32 -21 -47 1 -5 -2 -7 -6 -7 -21 3 -34 -2 -28 -11 4 -6 10 -8 15 -5 13 8
21 -11 14 -30 -4 -10 -13 -14 -23 -10 -37 15 -50 14 -44 -3 3 -9 13 -25 20
-34 8 -9 12 -21 9 -26 -9 -15 21 -22 33 -8 6 7 12 21 14 32 1 10 6 24 9 30 4
6 5 23 2 37 -2 16 0 27 7 27 6 0 9 8 6 19 -3 11 4 26 15 36 19 16 19 18 4 33
-14 14 -18 15 -25 3 -5 -8 -16 -11 -25 -8 -8 3 -18 2 -21 -4 -4 -5 -11 -6 -17
-3 -6 4 2 13 18 21 16 7 21 11 12 8 -19 -5 -25 10 -8 20 6 4 8 11 5 16 -7 11
-28 12 -22 2z m-57 -105 c-1 -7 -5 -19 -9 -25 -5 -7 -5 -17 -2 -23 3 -5 4 -10
1 -10 -3 0 -10 9 -16 21 -9 17 -8 23 7 35 22 17 22 17 19 2z m67 -112 c-7 -27
-11 -29 -21 -9 -10 18 -9 21 6 19 9 -2 16 -6 15 -10z m17 -26 c-6 -11 -13 -20
-16 -20 -2 0 0 9 6 20 6 11 13 20 16 20 2 0 0 -9 -6 -20z"/>
<path d="M11379 14433 c-13 -16 -12 -17 4 -4 9 7 17 15 17 17 0 8 -8 3 -21
-13z"/>
<path d="M11003 14425 c0 -9 4 -14 9 -13 5 2 10 8 10 13 0 5 -5 11 -10 13 -5
1 -9 -4 -9 -13z"/>
<path d="M11310 14342 c0 -12 19 -26 26 -19 2 2 -2 10 -11 17 -9 8 -15 8 -15
2z"/>
<path d="M11455 14310 c3 -5 8 -10 11 -10 2 0 4 5 4 10 0 6 -5 10 -11 10 -5 0
-7 -4 -4 -10z"/>
<path d="M11284 14294 c3 -20 66 -30 66 -12 0 6 -3 8 -7 5 -3 -4 -12 -2 -20 4
-7 6 -13 8 -13 4 0 -4 -6 -2 -14 4 -12 10 -14 9 -12 -5z"/>
<path d="M11400 14238 c0 -4 4 -8 9 -8 6 0 12 4 15 8 3 5 -1 9 -9 9 -8 0 -15
-4 -15 -9z"/>
<path d="M11570 14230 c0 -6 7 -10 15 -10 8 0 15 2 15 4 0 2 -7 6 -15 10 -8 3
-15 1 -15 -4z"/>
<path d="M11675 14219 c-4 -6 -5 -12 -2 -15 2 -3 7 2 10 11 7 17 1 20 -8 4z"/>
<path d="M11659 14173 c-13 -16 -12 -17 4 -4 9 7 17 15 17 17 0 8 -8 3 -21
-13z"/>
<path d="M11625 14161 c-6 -11 13 -26 22 -17 4 3 1 6 -6 6 -7 0 -9 5 -6 10 3
6 4 10 1 10 -3 0 -7 -4 -11 -9z"/>
<path d="M11775 14130 c-4 -6 -10 -8 -14 -6 -4 3 -8 -1 -8 -9 0 -13 4 -12 19
2 18 16 22 23 14 23 -3 0 -8 -5 -11 -10z"/>
<path d="M11415 14120 c4 -6 11 -8 16 -5 14 9 11 15 -7 15 -8 0 -12 -5 -9 -10z"/>
<path d="M11655 14120 c3 -5 8 -10 11 -10 2 0 4 5 4 10 0 6 -5 10 -11 10 -5 0
-7 -4 -4 -10z"/>
<path d="M11785 14090 c-3 -5 -1 -10 4 -10 6 0 11 5 11 10 0 6 -2 10 -4 10 -3
0 -8 -4 -11 -10z"/>
<path d="M11525 14042 c3 -3 -3 -14 -12 -25 -18 -20 -18 -20 10 -2 30 19 35
32 12 32 -8 0 -13 -3 -10 -5z"/>
<path d="M11786 14041 c-4 -5 -2 -12 3 -15 5 -4 12 -2 15 3 4 5 2 12 -3 15 -5
4 -12 2 -15 -3z"/>
<path d="M11894 13943 c2 -12 -2 -24 -10 -27 -9 -3 -14 1 -14 11 0 14 -2 14
-14 -2 -20 -27 -11 -36 23 -24 28 10 48 36 36 47 -3 3 -5 -1 -6 -9 0 -9 -4 -6
-10 6 -9 19 -9 19 -5 -2z"/>
<path d="M11787 13925 c-4 -8 -2 -17 3 -20 6 -4 10 3 10 14 0 25 -6 27 -13 6z"/>
<path d="M11725 13922 c6 -4 11 -15 11 -25 2 -14 -1 -15 -12 -6 -8 7 -14 7
-14 1 0 -14 25 -33 33 -25 4 3 7 19 7 35 0 20 -5 28 -17 28 -10 0 -14 -4 -8
-8z"/>
<path d="M11907 13895 c-8 -8 -18 -11 -22 -7 -4 4 0 -8 9 -26 15 -30 18 -31
33 -17 8 9 12 19 8 23 -4 4 -10 1 -12 -6 -3 -6 -9 -10 -14 -6 -14 8 0 24 22
24 10 0 19 4 19 10 0 5 -7 6 -17 3 -11 -4 -14 -3 -9 5 10 17 0 15 -17 -3z"/>
<path d="M12070 13856 c0 -2 8 -10 18 -17 15 -13 16 -12 3 4 -13 16 -21 21
-21 13z"/>
<path d="M12045 13830 c3 -5 8 -10 11 -10 2 0 4 5 4 10 0 6 -5 10 -11 10 -5 0
-7 -4 -4 -10z"/>
<path d="M12070 13821 c0 -6 4 -13 10 -16 6 -3 7 1 4 9 -7 18 -14 21 -14 7z"/>
<path d="M11982 13790 c-16 -27 -15 -50 3 -51 8 -1 21 -2 28 -3 6 -1 15 3 19
8 4 6 10 7 14 3 4 -3 2 -12 -4 -20 -8 -10 -6 -13 9 -13 22 0 22 1 8 27 -7 15
-7 24 1 34 7 9 8 15 0 20 -5 3 -10 4 -10 0 0 -3 -10 -1 -22 5 l-23 11 23 -20
c15 -13 18 -21 10 -23 -14 -5 -32 10 -39 30 -3 8 -8 5 -17 -8z"/>
<path d="M12135 13790 c-4 -6 -11 -7 -17 -4 -7 4 -8 2 -4 -5 6 -9 11 -9 22 0
14 11 18 19 10 19 -3 0 -8 -5 -11 -10z"/>
<path d="M12083 13761 c0 -11 5 -18 9 -15 4 3 5 11 1 19 -7 21 -12 19 -10 -4z"/>
<path d="M11810 13751 c0 -5 5 -13 10 -16 6 -3 10 -2 10 4 0 5 -4 13 -10 16
-5 3 -10 2 -10 -4z"/>
<path d="M12161 13744 c0 -11 3 -14 6 -6 3 7 2 16 -1 19 -3 4 -6 -2 -5 -13z"/>
<path d="M12100 13736 c0 -2 7 -9 15 -16 13 -11 14 -10 9 4 -5 14 -24 23 -24
12z"/>
<path d="M12240 13689 c0 -5 5 -7 10 -4 6 3 10 8 10 11 0 2 -4 4 -10 4 -5 0
-10 -5 -10 -11z"/>
<path d="M12254 13623 c16 -20 36 -23 36 -6 0 4 -3 3 -7 0 -3 -4 -16 1 -27 10
-21 18 -21 18 -2 -4z"/>
<path d="M12326 13581 c-4 -5 3 -7 14 -4 23 6 26 13 6 13 -8 0 -17 -4 -20 -9z"/>
<path d="M12370 13576 c0 -2 8 -10 18 -17 15 -13 16 -12 3 4 -13 16 -21 21
-21 13z"/>
<path d="M12426 13521 c-3 -5 1 -14 9 -21 7 -6 12 -17 9 -25 -7 -17 12 -29 22
-14 5 8 3 9 -6 4 -10 -6 -12 -4 -7 8 3 8 -1 21 -8 27 -8 7 -12 16 -9 21 3 5 3
9 0 9 -3 0 -7 -4 -10 -9z"/>
<path d="M12370 13506 c0 -2 7 -7 16 -10 8 -3 12 -2 9 4 -6 10 -25 14 -25 6z"/>
<path d="M12357 13482 c6 -15 5 -15 -10 -3 -9 7 -17 9 -17 3 0 -15 26 -33 35
-24 5 4 6 0 3 -9 -4 -9 -1 -16 6 -16 16 0 8 54 -10 61 -9 3 -11 0 -7 -12z"/>
<path d="M12400 13466 c0 -9 4 -15 9 -11 5 3 11 -3 13 -12 2 -12 6 -14 10 -7
4 6 -1 19 -12 29 -19 17 -20 17 -20 1z"/>
<path d="M12493 13465 c0 -8 4 -15 9 -15 4 0 8 4 8 9 0 6 -4 12 -8 15 -5 3 -9
-1 -9 -9z"/>
<path d="M12544 13425 c1 -8 8 -21 16 -28 12 -10 12 -9 2 4 -6 9 -9 18 -6 21
3 3 1 9 -4 12 -6 3 -9 -1 -8 -9z"/>
<path d="M12418 13401 c14 -24 22 -29 41 -24 14 4 22 2 18 -4 -3 -5 0 -10 8
-10 21 0 19 10 -5 25 -12 7 -18 17 -14 23 4 8 9 7 15 -2 7 -12 11 -11 24 2 15
15 14 16 -8 15 -14 -1 -31 -7 -39 -14 -11 -9 -19 -8 -36 4 l-22 15 18 -30z
m42 -7 c0 -8 -19 -13 -24 -6 -3 5 1 9 9 9 8 0 15 -2 15 -3z"/>
<path d="M12585 13400 c3 -5 8 -10 11 -10 2 0 4 5 4 10 0 6 -5 10 -11 10 -5 0
-7 -4 -4 -10z"/>
<path d="M12520 13370 c11 -7 11 -10 2 -10 -7 0 -10 -5 -6 -11 4 -8 9 -8 13
-1 4 7 12 7 20 3 16 -11 4 -34 -14 -27 -9 3 -11 -2 -7 -16 5 -19 5 -20 15 -2
10 18 11 17 18 -6 6 -23 7 -23 8 8 1 18 6 32 13 32 7 0 -5 9 -27 20 -41 21
-61 27 -35 10z"/>
<path d="M12580 13370 c0 -6 4 -9 9 -6 5 4 12 1 14 -4 3 -6 4 -5 3 2 -3 15
-26 23 -26 8z"/>
<path d="M12626 13351 c-3 -5 1 -11 9 -14 9 -4 12 -1 8 9 -6 16 -10 17 -17 5z"/>
<path d="M12453 13339 c-6 -6 -9 -18 -6 -26 4 -9 -2 -16 -16 -20 -24 -6 -27
-25 -7 -42 10 -9 16 -8 26 4 7 9 8 15 2 15 -6 0 -12 -5 -14 -12 -3 -8 -7 -6
-11 5 -3 9 -3 16 1 16 4 -1 16 -1 27 0 17 1 18 3 5 11 -13 8 -13 10 3 11 31 3
35 4 44 13 5 5 3 6 -4 2 -7 -4 -13 -2 -13 3 0 6 6 11 13 11 8 0 7 4 -3 10 -20
13 -34 12 -47 -1z m24 -14 c0 -8 -4 -15 -8 -15 -11 0 -20 16 -12 24 11 11 20
7 20 -9z"/>
<path d="M12586 13298 c3 -5 10 -6 15 -3 13 9 11 12 -6 12 -8 0 -12 -4 -9 -9z"/>
<path d="M12356 13291 c-4 -5 -2 -12 3 -15 5 -4 12 -2 15 3 4 5 2 12 -3 15 -5
4 -12 2 -15 -3z"/>
<path d="M12478 13277 c-2 -16 -5 -31 -8 -37 -2 -3 -4 -27 -5 -55 -2 -50 17
-91 37 -79 4 3 7 2 6 -3 -3 -7 5 -13 17 -13 3 0 1 9 -5 20 -6 12 -16 18 -23
14 -7 -4 -3 3 8 15 17 19 17 25 5 44 -11 19 -11 20 1 10 12 -10 18 -8 29 10
19 29 19 65 0 73 -28 12 -60 12 -62 1z m54 -19 c11 -13 15 -24 9 -26 -6 -2
-11 -10 -11 -18 0 -12 -4 -12 -20 -4 -11 6 -20 16 -20 23 0 8 3 8 9 -1 6 -11
9 -9 13 6 3 11 1 25 -5 31 -6 6 -7 11 -3 11 5 0 17 -10 28 -22z m-51 -71 c-10
-9 -11 -8 -5 6 3 10 9 15 12 12 3 -3 0 -11 -7 -18z m23 -16 c3 -4 -4 -17 -16
-27 -13 -12 -18 -13 -12 -4 5 8 9 18 10 23 3 15 4 17 8 17 3 0 7 -4 10 -9z"/>
<path d="M12646 13273 c5 -5 12 -12 16 -18 4 -6 8 -2 8 8 0 9 -7 17 -17 17 -9
0 -12 -3 -7 -7z"/>
<path d="M12712 13268 c-14 -14 -16 -38 -2 -38 5 0 7 8 3 18 -5 14 -3 15 8 5
7 -7 18 -13 24 -13 5 0 2 5 -8 11 -9 6 -15 14 -12 20 8 13 1 11 -13 -3z"/>
<path d="M12746 13215 c4 -8 7 -15 9 -15 2 0 5 7 9 15 3 9 0 15 -9 15 -9 0
-12 -6 -9 -15z"/>
<path d="M12684 13191 c4 -6 17 -11 28 -11 12 0 19 -3 15 -6 -7 -7 17 -34 29
-34 5 0 3 5 -4 12 -20 20 -13 32 8 13 11 -10 23 -15 27 -12 3 4 1 7 -7 7 -9 0
-10 3 -2 13 9 10 3 13 -26 15 -20 2 -45 5 -56 8 -12 4 -16 2 -12 -5z"/>
<path d="M12524 13158 c-8 -18 -6 -29 9 -51 17 -25 37 -29 37 -6 0 6 -4 8 -9
5 -5 -3 -14 1 -21 8 -9 12 -7 17 9 25 12 7 18 17 15 26 -9 22 -28 18 -40 -7z"/>
<path d="M12661 13171 c-9 -6 -10 -11 -2 -15 6 -4 11 -16 11 -27 0 -10 5 -19
10 -19 6 0 8 13 5 32 -7 39 -7 39 -24 29z"/>
<path d="M12804 13153 c4 -8 2 -13 -4 -13 -6 0 -8 -5 -4 -11 4 -8 9 -7 15 2 7
11 9 9 10 -6 1 -11 1 -24 0 -28 -1 -5 3 -6 8 -3 12 8 2 42 -17 58 -12 10 -14
10 -8 1z"/>
<path d="M12847 13135 c-4 -8 -3 -16 1 -19 4 -3 9 4 9 15 2 23 -3 25 -10 4z"/>
<path d="M12694 13131 c3 -5 24 -18 45 -29 36 -19 41 -19 53 -5 11 14 10 15
-9 9 -13 -4 -27 -1 -37 9 -9 9 -16 13 -16 9 0 -5 -5 -3 -12 4 -14 14 -32 16
-24 3z"/>
<path d="M12887 13109 c7 -7 15 -10 18 -7 3 3 -2 9 -12 12 -14 6 -15 5 -6 -5z"/>
<path d="M12690 13100 c0 -5 5 -10 10 -10 6 0 10 5 10 10 0 6 -4 10 -10 10 -5
0 -10 -4 -10 -10z"/>
<path d="M12660 13085 c-7 -9 -8 -15 -2 -15 5 0 12 7 16 15 3 8 4 15 2 15 -2
0 -9 -7 -16 -15z"/>
<path d="M12683 13075 c-24 -12 -40 -25 -36 -28 3 -4 12 -2 18 3 9 7 16 6 25
-5 19 -23 33 -18 28 9 -4 19 -1 24 14 23 18 -1 26 -27 8 -27 -5 0 -10 -5 -10
-11 0 -14 18 -2 30 20 7 14 5 20 -13 28 -17 7 -32 4 -64 -12z"/>
<path d="M12780 13065 c-10 -12 -8 -17 14 -26 14 -7 23 -16 20 -20 -3 -5 -1
-9 4 -9 14 0 22 25 12 40 -5 8 -9 9 -11 1 -3 -7 -9 -7 -19 -1 -13 9 -13 11 0
20 8 5 10 10 4 10 -6 0 -17 -7 -24 -15z"/>
<path d="M12855 13052 c-6 -4 -11 -14 -13 -22 -3 -12 0 -12 14 2 18 18 17 33
-1 20z"/>
<path d="M12985 13027 c10 -8 15 -19 12 -24 -8 -12 20 -39 30 -30 3 4 -1 9
-10 13 -9 3 -13 12 -10 21 3 8 0 19 -8 24 -22 14 -35 10 -14 -4z"/>
<path d="M12920 13016 c18 -18 10 -28 -17 -22 -21 5 -24 4 -13 -4 13 -8 12
-10 -5 -11 -11 -1 -24 -1 -29 0 -5 1 -6 -6 -2 -15 5 -14 4 -15 -8 -5 -22 18
-15 -13 8 -38 16 -17 17 -23 6 -36 -7 -9 -19 -14 -26 -11 -14 5 -37 -17 -27
-27 3 -4 12 -2 19 4 17 14 29 -7 14 -26 -7 -9 -8 -15 0 -20 10 -6 11 -5 14 15
0 6 6 14 11 18 12 9 13 62 1 81 -7 11 -6 12 5 5 8 -5 16 -9 19 -9 3 0 14 -6
25 -12 19 -11 18 -12 -8 -24 -15 -7 -27 -16 -27 -21 0 -5 6 -6 13 -2 9 6 9 4
-1 -8 -9 -12 -10 -18 -2 -23 8 -5 8 -10 0 -20 -7 -8 -7 -15 -1 -19 12 -8 19 3
16 30 -1 11 4 21 12 21 15 0 17 -13 3 -22 -6 -4 -2 -18 11 -36 11 -16 25 -26
30 -23 6 3 8 9 5 12 -8 8 14 32 30 32 9 0 12 -8 10 -22 -3 -13 -5 -23 -6 -23
-1 0 -3 -8 -5 -19 -2 -11 0 -15 5 -10 5 5 11 19 13 31 2 13 7 26 12 30 4 5 5
2 1 -4 -4 -7 -4 -13 1 -14 53 -7 62 -5 52 7 -6 7 -18 10 -27 7 -13 -4 -12 -2
3 11 14 12 16 19 7 22 -6 3 -9 11 -6 16 4 6 2 8 -4 4 -6 -3 -13 -2 -17 4 -4 6
-11 8 -16 5 -5 -4 -9 -2 -9 4 0 17 22 24 31 10 7 -11 9 -10 9 4 0 26 -39 22
-50 -5 -5 -13 -9 -17 -9 -10 -1 7 -5 11 -10 7 -5 -3 -12 -1 -16 5 -3 5 0 10 8
10 10 0 13 7 10 19 -5 18 -6 18 -22 3 -10 -10 -16 -21 -13 -26 3 -5 -1 -6 -8
-1 -10 6 -10 11 3 20 19 14 23 35 6 35 -5 0 -7 5 -3 11 4 7 1 10 -7 7 -8 -3
-13 -11 -11 -17 1 -8 -8 -6 -28 4 -16 9 -30 18 -30 21 0 3 4 3 8 0 5 -3 19 6
31 20 18 20 25 23 36 14 8 -7 13 -16 10 -20 -2 -4 7 -5 20 -2 14 2 22 8 20 13
-3 4 -13 5 -22 2 -11 -4 -14 -3 -9 6 5 7 2 10 -6 9 -7 -2 -12 3 -10 10 1 6 -4
12 -10 12 -9 0 -8 3 2 10 12 7 10 9 -8 7 -14 -1 -18 -5 -12 -11z m68 -189 c8
-10 5 -13 -16 -14 -17 0 -20 1 -8 4 15 4 16 7 5 14 -8 5 -9 9 -3 9 6 0 16 -6
22 -13z m-25 -30 c4 3 7 4 7 1 0 -3 -8 -12 -17 -19 -10 -7 -15 -9 -11 -5 4 5
2 16 -5 25 -10 14 -10 14 4 4 9 -7 19 -10 22 -6z"/>
<path d="M13040 13011 c0 -7 -5 -9 -12 -5 -7 5 -8 3 -3 -5 5 -9 10 -10 18 -2
6 6 8 14 4 18 -4 3 -7 1 -7 -6z"/>
<path d="M13031 12956 c-7 -8 -8 -17 -3 -20 6 -3 12 3 15 14 6 24 4 25 -12 6z"/>
<path d="M12976 12932 c-3 -5 1 -9 9 -9 8 0 12 4 9 9 -3 4 -7 8 -9 8 -2 0 -6
-4 -9 -8z"/>
<path d="M13075 12929 c-4 -6 -5 -12 -2 -15 2 -3 7 2 10 11 7 17 1 20 -8 4z"/>
<path d="M13002 12910 c-14 -23 -15 -30 -3 -30 8 0 24 41 18 47 -2 1 -8 -7
-15 -17z"/>
<path d="M13034 12909 c-19 -22 -19 -22 4 -8 12 8 22 17 22 21 0 12 -6 9 -26
-13z"/>
<path d="M12886 12895 c-3 -8 -1 -15 4 -15 13 0 22 18 11 24 -5 3 -11 -1 -15
-9z"/>
<path d="M13091 12903 c3 -21 -3 -24 -18 -12 -16 13 -17 12 -5 -3 7 -9 9 -18
3 -20 -5 -1 3 -12 17 -22 15 -11 22 -14 16 -7 -15 16 -6 53 10 44 6 -4 5 1 -3
10 -14 18 -22 22 -20 10z"/>
<path d="M13212 12854 c-1 -13 0 -24 2 -24 7 0 14 40 7 44 -4 3 -8 -6 -9 -20z"/>
<path d="M13132 12858 c2 -6 12 -12 22 -14 14 -2 15 0 5 12 -14 17 -32 19 -27
2z"/>
<path d="M13130 12815 c-10 -12 -17 -12 -34 -3 -20 11 -20 10 -6 -7 14 -17 13
-18 -5 -12 -16 6 -15 3 5 -12 14 -11 22 -22 19 -26 -14 -13 -62 -16 -70 -3 -4
7 -12 9 -16 4 -4 -4 0 -13 10 -20 20 -15 23 -30 5 -21 -7 4 -4 -1 6 -9 11 -9
14 -16 7 -16 -7 0 -9 -5 -6 -11 5 -6 12 -3 21 10 9 12 21 18 32 15 14 -5 15
-4 2 5 -13 9 -13 11 0 11 13 0 13 2 0 11 -12 9 -11 10 5 4 32 -11 48 -11 52 2
3 7 -3 9 -16 6 -13 -3 -21 -1 -21 8 0 7 3 9 7 6 3 -4 12 1 20 11 8 9 12 12 9
6 -3 -7 1 -15 10 -18 8 -3 12 -2 9 4 -8 13 8 13 22 -1 8 -8 13 -7 18 2 5 8 4
10 -3 5 -7 -4 -12 -2 -12 3 0 6 -10 11 -21 11 -16 0 -19 3 -11 13 8 9 8 17 0
27 -8 13 -9 12 -5 -2 4 -10 -3 -22 -18 -32 -28 -19 -35 -20 -35 -6 0 6 5 9 11
8 6 -2 15 7 20 20 10 26 6 28 -11 7z m-59 -98 c-10 -9 -11 -8 -5 6 3 10 9 15
12 12 3 -3 0 -11 -7 -18z"/>
<path d="M13218 12783 c7 -3 16 -2 19 1 4 3 -2 6 -13 5 -11 0 -14 -3 -6 -6z"/>
<path d="M13286 12765 c4 -8 11 -15 16 -15 6 0 5 6 -2 15 -7 8 -14 15 -16 15
-2 0 -1 -7 2 -15z"/>
<path d="M13266 12747 c3 -10 9 -15 12 -12 3 3 0 11 -7 18 -10 9 -11 8 -5 -6z"/>
<path d="M13160 12725 c-7 -9 -21 -13 -31 -10 -14 5 -16 1 -12 -14 4 -16 11
-19 29 -15 20 5 23 3 18 -12 -4 -14 -3 -16 4 -5 5 7 16 18 23 23 11 7 9 8 -5
6 -10 -2 -21 3 -24 11 -3 8 0 11 7 7 6 -4 11 -1 11 8 0 20 -4 20 -20 1z"/>
<path d="M13288 12724 c-38 -20 -36 -28 2 -9 17 9 30 18 30 20 0 7 -1 6 -32
-11z"/>
<path d="M13318 12713 c-10 -2 -18 -12 -18 -20 0 -14 3 -14 20 2 17 15 26 28
18 24 -2 -1 -11 -3 -20 -6z"/>
<path d="M13108 12673 c6 -11 8 -24 4 -29 -4 -5 0 -3 9 4 14 10 17 10 15 0 -1
-15 17 -24 22 -10 2 6 -11 20 -29 32 -29 22 -31 22 -21 3z"/>
<path d="M13370 12680 c8 -5 20 -10 25 -10 6 0 3 5 -5 10 -8 5 -19 10 -25 10
-5 0 -3 -5 5 -10z"/>
<path d="M13264 12665 c4 -11 2 -21 -5 -26 -7 -4 0 -6 15 -6 17 1 24 7 21 15
-3 7 0 10 5 7 6 -3 10 -22 10 -41 0 -25 4 -34 17 -34 9 0 14 -3 10 -6 -3 -4 3
-14 15 -23 20 -17 20 -19 4 -43 -15 -22 -15 -27 -1 -38 13 -10 15 -9 15 9 0
12 4 20 9 17 5 -3 8 5 7 19 0 14 -5 25 -9 25 -5 0 -5 10 -1 22 6 20 5 21 -10
9 -14 -11 -16 -11 -16 2 0 8 5 17 12 19 7 3 6 7 -5 11 -9 3 -17 2 -17 -4 0 -6
-5 -7 -10 -4 -8 5 -7 11 1 21 6 7 16 11 23 7 7 -4 6 -1 -1 9 -7 8 -10 18 -6
21 3 4 1 7 -6 7 -8 0 -11 -7 -7 -15 3 -8 1 -15 -4 -15 -6 0 -10 7 -10 15 0 8
-4 16 -10 16 -20 3 -25 4 -39 13 -11 7 -13 5 -7 -9z"/>
<path d="M13442 12649 c-8 -12 -18 -17 -25 -12 -7 4 -7 1 2 -10 16 -20 22 -22
19 -4 -2 7 6 11 20 11 19 -1 21 1 10 15 -7 9 -13 17 -13 18 0 1 -6 -7 -13 -18z"/>
<path d="M13387 12623 c-4 -3 -7 -11 -7 -17 0 -6 5 -4 11 4 7 11 8 6 4 -20 -7
-33 -6 -34 8 -15 11 14 12 25 6 37 -11 20 -13 21 -22 11z"/>
<path d="M13180 12584 c0 -1 6 -7 14 -13 10 -9 15 -8 19 3 4 10 0 14 -14 13
-10 -1 -19 -2 -19 -3z"/>
<path d="M13423 12566 c9 -7 17 -19 17 -27 0 -12 2 -12 9 0 13 20 4 37 -22 38
-20 2 -21 1 -4 -11z"/>
<path d="M13460 12523 c0 -13 3 -24 8 -24 43 -7 62 -6 62 1 0 5 -12 7 -27 4
-22 -4 -24 -3 -14 10 8 10 9 16 1 21 -5 3 -10 0 -10 -7 0 -9 -3 -9 -10 2 -8
12 -10 11 -10 -7z"/>
<path d="M13400 12501 c0 -22 -4 -30 -12 -25 -6 4 -8 3 -4 -4 3 -6 -5 -23 -19
-38 -19 -21 -22 -29 -13 -36 10 -6 10 -8 0 -8 -7 0 -10 -5 -7 -10 5 -8 11 -7
21 1 12 9 12 15 2 27 -10 12 -10 14 -1 9 8 -5 15 1 19 19 5 17 9 22 14 13 5
-7 2 -18 -6 -26 -12 -12 -11 -18 8 -43 15 -21 25 -27 33 -20 7 5 15 7 18 3 9
-8 38 17 31 28 -3 5 3 6 12 2 12 -4 15 -3 10 5 -4 7 -1 14 6 17 7 3 14 16 14
30 2 22 0 23 -18 14 -15 -8 -17 -13 -8 -19 7 -5 9 -13 5 -21 -6 -9 -10 -8 -15
7 -4 10 -3 25 2 32 6 6 8 13 4 13 -3 1 -10 3 -16 4 -5 1 -14 3 -19 4 -4 0 -20
13 -35 27 l-26 27 0 -32z m45 -20 c3 -5 0 -13 -6 -17 -8 -5 -9 -3 -4 6 5 9 4
11 -4 6 -8 -5 -9 -12 -2 -20 6 -7 15 -23 21 -37 9 -20 10 -20 7 -3 -3 12 0 28
5 35 6 10 8 3 6 -20 -2 -19 -8 -36 -15 -38 -15 -5 -43 47 -40 76 1 21 21 29
32 12z m-30 -70 c3 -5 2 -12 -3 -15 -5 -3 -9 1 -9 9 0 17 3 19 12 6z m25 -31
c0 -5 -4 -10 -10 -10 -5 0 -10 5 -10 10 0 6 5 10 10 10 6 0 10 -4 10 -10z"/>
<path d="M13540 12506 c0 -8 5 -18 10 -21 6 -3 10 1 10 9 0 8 -4 18 -10 21 -5
3 -10 -1 -10 -9z"/>
<path d="M13275 12500 c3 -5 -2 -10 -11 -10 -10 0 -14 -3 -10 -7 11 -11 30
-10 38 1 8 12 1 26 -13 26 -6 0 -7 -4 -4 -10z"/>
<path d="M13602 12495 c4 -4 0 -14 -10 -21 -9 -7 -12 -14 -6 -14 6 0 17 6 23
14 9 11 9 16 -1 22 -7 4 -10 4 -6 -1z"/>
<path d="M13536 12442 c-2 -4 -1 -14 5 -22 7 -12 9 -10 9 8 0 23 -5 28 -14 14z"/>
<path d="M13617 12426 c-3 -8 0 -16 6 -19 7 -3 13 3 13 14 0 22 -12 25 -19 5z"/>
<path d="M13575 12410 c4 -6 11 -8 16 -5 14 9 11 15 -7 15 -8 0 -12 -5 -9 -10z"/>
<path d="M13628 12383 c7 -3 16 -2 19 1 4 3 -2 6 -13 5 -11 0 -14 -3 -6 -6z"/>
<path d="M13656 12374 c-4 -10 -2 -13 6 -8 7 5 9 1 6 -13 -3 -12 0 -20 8 -20
7 0 11 4 8 8 -2 4 4 10 13 12 17 4 17 5 1 6 -10 0 -18 8 -18 16 0 20 -16 19
-24 -1z"/>
<path d="M13723 12369 c3 -9 1 -21 -5 -27 -6 -6 -6 -12 2 -17 6 -4 17 -2 23 4
8 8 8 11 -2 11 -7 0 -10 4 -7 8 2 4 0 14 -6 22 -8 13 -9 12 -5 -1z"/>
<path d="M13765 12340 c-3 -5 -1 -10 4 -10 6 0 11 5 11 10 0 6 -2 10 -4 10 -3
0 -8 -4 -11 -10z"/>
<path d="M13805 12330 c-3 -5 1 -10 10 -10 9 0 13 5 10 10 -3 6 -8 10 -10 10
-2 0 -7 -4 -10 -10z"/>
<path d="M13680 12311 c18 -5 21 -9 12 -15 -7 -4 -20 -5 -28 -2 -10 4 -14 1
-11 -6 2 -7 10 -12 16 -10 7 1 9 -2 6 -8 -4 -7 0 -10 11 -8 13 2 18 -2 16 -12
-3 -11 2 -10 17 4 19 17 26 15 22 -7 -1 -5 3 -6 8 -2 6 3 8 12 4 20 -4 11 -1
13 13 8 16 -6 17 -5 4 8 -14 16 -43 22 -35 8 3 -3 -1 -12 -9 -18 -10 -9 -16
-8 -26 4 -12 14 -7 20 14 16 5 -1 4 5 -4 13 -7 9 -22 16 -34 15 -19 -1 -18 -2
4 -8z"/>
<path d="M13803 12289 c-2 -23 3 -25 10 -4 4 8 3 16 -1 19 -4 3 -9 -4 -9 -15z"/>
<path d="M13838 12283 c-10 -2 -18 -11 -18 -18 0 -9 -7 -12 -17 -9 -16 5 -16
4 0 -6 14 -9 16 -15 6 -26 -6 -8 -8 -14 -3 -14 5 0 4 -4 -2 -8 -6 -4 -4 -13 8
-24 15 -15 18 -15 18 -3 0 8 -4 15 -9 15 -5 0 -8 8 -6 18 2 9 4 17 5 17 1 0 3
8 5 18 2 10 12 25 22 33 19 14 19 14 -9 7z"/>
<path d="M13663 12243 c9 -9 20 -13 24 -9 4 4 1 11 -7 16 -25 16 -35 11 -17
-7z"/>
<path d="M13893 12235 c-8 -9 -9 -16 -3 -20 6 -3 10 -1 10 5 0 6 4 8 10 5 6
-3 7 1 4 9 -7 19 -6 19 -21 1z"/>
<path d="M13546 12230 c-11 -3 -15 -9 -10 -13 10 -6 42 9 34 16 -3 3 -14 1
-24 -3z"/>
<path d="M13845 12200 c-3 -5 -1 -10 4 -10 6 0 11 5 11 10 0 6 -2 10 -4 10 -3
0 -8 -4 -11 -10z"/>
<path d="M13756 12150 c-11 -3 -15 -9 -10 -13 10 -6 42 9 34 16 -3 3 -14 1
-24 -3z"/>
<path d="M13913 12144 c0 -8 3 -12 5 -9 3 3 12 -1 20 -7 12 -10 14 -9 11 6 -5
22 -36 30 -36 10z"/>
<path d="M13746 12111 c-4 -6 2 -18 13 -28 15 -13 18 -20 9 -30 -6 -7 -8 -16
-5 -19 3 -3 10 3 15 13 11 20 -21 83 -32 64z"/>
<path d="M13805 12101 c-10 -17 12 -21 25 -6 10 12 10 15 -3 15 -9 0 -18 -4
-22 -9z"/>
<path d="M13983 12091 c-9 -14 -9 -22 0 -33 7 -7 11 -11 10 -9 -2 2 5 10 15
18 13 10 14 13 2 11 -9 -2 -14 3 -12 15 4 22 0 22 -15 -2z"/>
<path d="M14073 12055 c0 -8 4 -12 9 -9 4 3 8 9 8 15 0 5 -4 9 -8 9 -5 0 -9
-7 -9 -15z"/>
<path d="M14134 12038 l-19 -23 23 19 c21 18 27 26 19 26 -2 0 -12 -10 -23
-22z"/>
<path d="M14085 12029 c-4 -6 -5 -12 -2 -15 2 -3 7 2 10 11 7 17 1 20 -8 4z"/>
<path d="M14035 12022 c-5 -4 -11 -14 -13 -22 -2 -12 1 -11 11 2 8 10 18 14
22 10 5 -4 5 -1 1 6 -8 14 -8 14 -21 4z"/>
<path d="M14169 12028 c-6 -23 -7 -48 -1 -48 4 0 8 11 8 25 0 21 -4 33 -7 23z"/>
<path d="M14137 11960 c3 -11 7 -20 9 -20 2 0 4 9 4 20 0 11 -4 20 -9 20 -5 0
-7 -9 -4 -20z"/>
<path d="M14209 11958 c-6 -20 -6 -39 0 -42 4 -3 7 6 7 20 0 20 -4 32 -7 22z"/>
<path d="M14173 11908 c1 -15 5 -24 10 -21 5 3 21 -9 36 -26 15 -17 31 -31 35
-31 4 0 -4 12 -18 27 -14 15 -23 30 -20 35 3 5 2 8 -3 7 -20 -4 -32 2 -36 19
-3 9 -4 5 -4 -10z"/>
<path d="M14230 11888 c0 -6 3 -8 6 -5 4 3 15 2 24 -3 13 -7 22 -5 31 8 12 15
12 15 -1 5 -10 -8 -21 -9 -30 -3 -20 13 -30 12 -30 -2z"/>
<path d="M13990 11855 c7 -8 16 -12 21 -9 16 9 10 20 -12 21 -17 2 -18 -1 -9
-12z"/>
<path d="M14040 11832 c0 -5 3 -12 8 -16 4 -4 7 -22 7 -38 0 -34 25 -47 46
-22 6 8 16 11 23 7 7 -4 6 -1 -1 9 -7 8 -10 18 -7 21 4 4 -5 11 -19 16 -14 5
-28 15 -32 20 -7 13 -25 15 -25 3z m48 -43 c-10 -7 -11 -9 0 -9 7 0 10 -5 7
-11 -5 -6 -12 -4 -20 8 -16 21 -10 34 11 26 13 -5 13 -7 2 -14z"/>
<path d="M14324 11828 c-4 -6 -2 -14 4 -16 6 -2 8 -11 5 -20 -6 -14 -4 -15 9
-5 8 7 18 10 21 6 4 -3 7 2 7 13 0 16 2 17 10 4 6 -9 10 -10 10 -3 0 16 -17
26 -25 14 -3 -6 -12 -8 -20 -5 -8 4 -12 10 -9 15 3 5 3 9 0 9 -3 0 -8 -5 -12
-12z"/>
<path d="M14350 11776 c0 -2 9 -6 20 -9 11 -3 18 -1 14 4 -5 9 -34 13 -34 5z"/>
<path d="M14300 11758 c0 -4 4 -8 9 -8 6 0 12 4 15 8 3 5 -1 9 -9 9 -8 0 -15
-4 -15 -9z"/>
<path d="M14415 11751 c-3 -5 -1 -12 5 -16 5 -3 10 -15 10 -26 0 -12 4 -17 11
-14 7 5 5 15 -5 30 -12 18 -12 25 -3 28 9 4 9 6 0 6 -6 1 -14 -3 -18 -8z"/>
<path d="M14156 11702 c-3 -5 3 -17 14 -27 23 -21 26 -9 6 18 -8 10 -17 14
-20 9z"/>
<path d="M14188 11704 c-2 -5 1 -19 7 -32 10 -19 14 -20 24 -8 8 10 9 16 1 21
-5 3 -10 3 -11 -2 0 -4 -4 1 -8 11 -4 11 -10 15 -13 10z"/>
<path d="M14552 11658 c-7 -7 -12 -16 -12 -21 0 -5 7 -1 16 8 9 9 14 18 12 20
-2 3 -10 -1 -16 -7z"/>
<path d="M14271 11615 c26 -28 36 -47 33 -63 -3 -17 0 -21 8 -16 10 6 10 5 1
-7 -8 -9 -9 -20 -3 -29 6 -8 10 -13 11 -10 0 3 2 16 5 29 2 13 -1 30 -8 38 -6
8 -7 13 -2 12 19 -3 34 1 34 12 0 5 -4 8 -9 4 -5 -3 -12 -1 -16 5 -4 6 -11 7
-17 4 -6 -4 -8 -2 -5 3 4 6 0 16 -8 23 -8 7 -15 9 -15 5 0 -5 -10 0 -22 11
-13 10 -7 1 13 -21z"/>
<path d="M14304 11633 c2 -10 7 -18 12 -18 5 0 10 8 12 18 2 10 -3 17 -11 17
-9 0 -14 -8 -13 -17z"/>
<path d="M14552 11625 c-7 -8 -10 -15 -6 -15 3 0 1 -6 -5 -14 -10 -12 -7 -14
20 -11 17 3 34 7 38 11 3 4 -4 4 -16 1 -25 -6 -31 11 -11 31 7 7 8 12 3 12 -6
-1 -16 -7 -23 -15z"/>
<path d="M14508 11623 c7 -3 16 -2 19 1 4 3 -2 6 -13 5 -11 0 -14 -3 -6 -6z"/>
<path d="M14495 11601 c-3 -6 -3 -11 2 -11 4 0 2 -4 -5 -9 -10 -6 -8 -13 7
-32 11 -13 20 -18 21 -11 0 6 -4 12 -10 12 -5 0 -10 5 -10 11 0 6 7 9 15 5 13
-5 14 -2 4 17 -16 30 -16 30 -24 18z"/>
<path d="M14581 11557 c-1 -13 -7 -16 -28 -12 l-28 5 28 -11 c32 -13 41 -8 34
18 -4 17 -5 17 -6 0z"/>
<path d="M14600 11540 c0 -5 7 -7 15 -4 8 4 15 8 15 10 0 2 -7 4 -15 4 -8 0
-15 -4 -15 -10z"/>
<path d="M14626 11518 c5 -8 2 -9 -9 -5 -16 6 -16 4 -2 -23 9 -17 18 -30 21
-30 2 0 0 9 -6 20 -9 16 -8 22 5 26 16 6 11 24 -6 24 -6 0 -7 -5 -3 -12z"/>
<path d="M14645 11490 c3 -5 8 -10 11 -10 2 0 4 5 4 10 0 6 -5 10 -11 10 -5 0
-7 -4 -4 -10z"/>
<path d="M14690 11486 c0 -2 9 -6 20 -9 11 -3 18 -1 14 4 -5 9 -34 13 -34 5z"/>
<path d="M14765 11471 c-3 -5 -1 -12 5 -16 5 -3 10 1 10 9 0 18 -6 21 -15 7z"/>
<path d="M14790 11451 c0 -6 4 -13 10 -16 6 -3 7 1 4 9 -7 18 -14 21 -14 7z"/>
<path d="M14742 11424 c10 -10 20 -15 24 -12 3 4 -5 12 -18 18 -22 12 -22 12
-6 -6z"/>
<path d="M14763 11362 c-9 -15 -7 -18 8 -18 21 0 23 5 11 23 -6 9 -11 8 -19
-5z"/>
<path d="M14820 11366 c0 -2 7 -9 15 -16 13 -11 14 -10 9 4 -5 14 -24 23 -24
12z"/>
<path d="M14905 11291 c3 -6 -2 -14 -11 -19 -15 -8 -15 -10 0 -15 11 -4 15 -3
11 4 -4 6 3 13 15 16 16 4 18 8 8 14 -18 12 -31 11 -23 0z"/>
<path d="M14970 11256 c0 -2 8 -10 18 -17 15 -13 16 -12 3 4 -13 16 -21 21
-21 13z"/>
<path d="M14947 11163 c-10 -16 -4 -64 7 -60 6 2 10 15 8 28 -2 19 0 21 8 9 5
-8 10 -10 10 -5 0 6 4 4 9 -4 7 -10 9 -7 8 12 -2 21 -7 27 -24 27 -12 0 -24
-3 -26 -7z"/>
</g>
</svg>
