<svg xmlns="http://www.w3.org/2000/svg" viewBox="0 0 1920 1080"><g transform="
          rotate(0 960 540) 
          translate(-0 -0)
          scale(1)
        "><rect width="1920" height="1080" fill="rgb(41, 83, 140)"></rect><g transform="translate(0, 0)"><path fill="rgb(36, 74, 124)" fill-opacity="1" d="M0,176.472L45.714,175.038C91.429,173.603,182.857,170.735,274.286,170.291C365.714,169.846,457.143,171.825,548.571,172.047C640,172.27,731.429,170.736,822.857,151.592C914.286,132.447,1005.714,95.692,1097.143,92.587C1188.571,89.483,1280,120.03,1371.429,110.668C1462.857,101.306,1554.286,52.034,1645.714,49.24C1737.143,46.446,1828.571,90.129,1874.286,111.97L1920,133.812L1920,1080L1874.286,1080C1828.571,1080,1737.143,1080,1645.714,1080C1554.286,1080,1462.857,1080,1371.429,1080C1280,1080,1188.571,1080,1097.143,1080C1005.714,1080,914.286,1080,822.857,1080C731.429,1080,640,1080,548.571,1080C457.143,1080,365.714,1080,274.286,1080C182.857,1080,91.429,1080,45.714,1080L0,1080Z"></path></g><g transform="translate(0, 180)"><path fill="rgb(30, 65, 109)" fill-opacity="1" d="M0,68.047L45.714,58.717C91.429,49.387,182.857,30.728,274.286,40.359C365.714,49.991,457.143,87.914,548.571,94.752C640,101.59,731.429,77.343,822.857,65.207C914.286,53.071,1005.714,53.045,1097.143,70.637C1188.571,88.229,1280,123.439,1371.429,142.349C1462.857,161.259,1554.286,163.869,1645.714,142.337C1737.143,120.806,1828.571,75.131,1874.286,52.294L1920,29.457L1920,900L1874.286,900C1828.571,900,1737.143,900,1645.714,900C1554.286,900,1462.857,900,1371.429,900C1280,900,1188.571,900,1097.143,900C1005.714,900,914.286,900,822.857,900C731.429,900,640,900,548.571,900C457.143,900,365.714,900,274.286,900C182.857,900,91.429,900,45.714,900L0,900Z"></path></g><g transform="translate(0, 360)"><path fill="rgb(25, 56, 93)" fill-opacity="1" d="M0,53.56L45.714,67.154C91.429,80.747,182.857,107.933,274.286,127.165C365.714,146.397,457.143,157.675,548.571,150.257C640,142.839,731.429,116.726,822.857,90.156C914.286,63.587,1005.714,36.561,1097.143,21.682C1188.571,6.803,1280,4.071,1371.429,20.539C1462.857,37.008,1554.286,72.679,1645.714,83.891C1737.143,95.103,1828.571,81.857,1874.286,75.234L1920,68.61L1920,720L1874.286,720C1828.571,720,1737.143,720,1645.714,720C1554.286,720,1462.857,720,1371.429,720C1280,720,1188.571,720,1097.143,720C1005.714,720,914.286,720,822.857,720C731.429,720,640,720,548.571,720C457.143,720,365.714,720,274.286,720C182.857,720,91.429,720,45.714,720L0,720Z"></path></g><g transform="translate(0, 540)"><path fill="rgb(19, 46, 77)" fill-opacity="1" d="M0,25.742L45.714,28.983C91.429,32.224,182.857,38.706,274.286,43.304C365.714,47.902,457.143,50.616,548.571,66.528C640,82.44,731.429,111.551,822.857,131.375C914.286,151.199,1005.714,161.738,1097.143,168.059C1188.571,174.38,1280,176.484,1371.429,164.312C1462.857,152.14,1554.286,125.691,1645.714,104.647C1737.143,83.604,1828.571,67.967,1874.286,60.148L1920,52.329L1920,540L1874.286,540C1828.571,540,1737.143,540,1645.714,540C1554.286,540,1462.857,540,1371.429,540C1280,540,1188.571,540,1097.143,540C1005.714,540,914.286,540,822.857,540C731.429,540,640,540,548.571,540C457.143,540,365.714,540,274.286,540C182.857,540,91.429,540,45.714,540L0,540Z"></path></g><g transform="translate(0, 720)"><path fill="rgb(14, 37, 62)" fill-opacity="1" d="M0,17.352L45.714,40.407C91.429,63.462,182.857,109.573,274.286,136.084C365.714,162.595,457.143,169.506,548.571,173.207C640,176.908,731.429,177.399,822.857,167.141C914.286,156.883,1005.714,135.876,1097.143,122.758C1188.571,109.641,1280,104.412,1371.429,93.729C1462.857,83.046,1554.286,66.908,1645.714,79.655C1737.143,92.402,1828.571,134.033,1874.286,154.848L1920,175.664L1920,360L1874.286,360C1828.571,360,1737.143,360,1645.714,360C1554.286,360,1462.857,360,1371.429,360C1280,360,1188.571,360,1097.143,360C1005.714,360,914.286,360,822.857,360C731.429,360,640,360,548.571,360C457.143,360,365.714,360,274.286,360C182.857,360,91.429,360,45.714,360L0,360Z"></path></g><g transform="translate(0, 900)"><path fill="rgb(8, 28, 46)" fill-opacity="1" d="M0,154.937L45.714,156.427C91.429,157.917,182.857,160.898,274.286,157.44C365.714,153.982,457.143,144.085,548.571,119.395C640,94.704,731.429,55.221,822.857,59.949C914.286,64.677,1005.714,113.617,1097.143,124.736C1188.571,135.855,1280,109.153,1371.429,86.448C1462.857,63.743,1554.286,45.034,1645.714,44.649C1737.143,44.263,1828.571,62.201,1874.286,71.169L1920,80.138L1920,180L1874.286,180C1828.571,180,1737.143,180,1645.714,180C1554.286,180,1462.857,180,1371.429,180C1280,180,1188.571,180,1097.143,180C1005.714,180,914.286,180,822.857,180C731.429,180,640,180,548.571,180C457.143,180,365.714,180,274.286,180C182.857,180,91.429,180,45.714,180L0,180Z"></path></g></g></svg>